<mxfile host="app.diagrams.net" modified="2023-08-06T18:52:19.640Z" agent="Mozilla/5.0 (Macintosh; Intel Mac OS X 10_15_7) AppleWebKit/537.36 (KHTML, like Gecko) Chrome/115.0.0.0 Safari/537.36" etag="DLdvAbAB9LrdPRBuGCZz" version="21.6.6" type="device">
  <diagram id="C5RBs43oDa-KdzZeNtuy" name="Page-1">
    <mxGraphModel dx="2954" dy="1150" grid="1" gridSize="10" guides="1" tooltips="1" connect="1" arrows="1" fold="1" page="1" pageScale="1" pageWidth="1654" pageHeight="1169" background="none" math="0" shadow="0">
      <root>
        <mxCell id="WIyWlLk6GJQsqaUBKTNV-0" />
        <mxCell id="WIyWlLk6GJQsqaUBKTNV-1" parent="WIyWlLk6GJQsqaUBKTNV-0" />
        <mxCell id="piJNV3xV2iv5CXKUrv6N-0" value="companies" style="shape=table;startSize=30;container=1;collapsible=1;childLayout=tableLayout;fixedRows=1;rowLines=0;fontStyle=1;align=center;resizeLast=1;html=1;" parent="WIyWlLk6GJQsqaUBKTNV-1" vertex="1">
          <mxGeometry x="250" y="80" width="270" height="150" as="geometry" />
        </mxCell>
        <mxCell id="piJNV3xV2iv5CXKUrv6N-1" value="" style="shape=tableRow;horizontal=0;startSize=0;swimlaneHead=0;swimlaneBody=0;fillColor=none;collapsible=0;dropTarget=0;points=[[0,0.5],[1,0.5]];portConstraint=eastwest;top=0;left=0;right=0;bottom=1;" parent="piJNV3xV2iv5CXKUrv6N-0" vertex="1">
          <mxGeometry y="30" width="270" height="30" as="geometry" />
        </mxCell>
        <mxCell id="piJNV3xV2iv5CXKUrv6N-2" value="PK" style="shape=partialRectangle;connectable=0;fillColor=none;top=0;left=0;bottom=0;right=0;fontStyle=1;overflow=hidden;whiteSpace=wrap;html=1;" parent="piJNV3xV2iv5CXKUrv6N-1" vertex="1">
          <mxGeometry width="30" height="30" as="geometry">
            <mxRectangle width="30" height="30" as="alternateBounds" />
          </mxGeometry>
        </mxCell>
        <mxCell id="piJNV3xV2iv5CXKUrv6N-3" value="id (int)" style="shape=partialRectangle;connectable=0;fillColor=none;top=0;left=0;bottom=0;right=0;align=left;spacingLeft=6;fontStyle=5;overflow=hidden;whiteSpace=wrap;html=1;" parent="piJNV3xV2iv5CXKUrv6N-1" vertex="1">
          <mxGeometry x="30" width="240" height="30" as="geometry">
            <mxRectangle width="240" height="30" as="alternateBounds" />
          </mxGeometry>
        </mxCell>
        <mxCell id="piJNV3xV2iv5CXKUrv6N-4" value="" style="shape=tableRow;horizontal=0;startSize=0;swimlaneHead=0;swimlaneBody=0;fillColor=none;collapsible=0;dropTarget=0;points=[[0,0.5],[1,0.5]];portConstraint=eastwest;top=0;left=0;right=0;bottom=0;" parent="piJNV3xV2iv5CXKUrv6N-0" vertex="1">
          <mxGeometry y="60" width="270" height="30" as="geometry" />
        </mxCell>
        <mxCell id="piJNV3xV2iv5CXKUrv6N-5" value="" style="shape=partialRectangle;connectable=0;fillColor=none;top=0;left=0;bottom=0;right=0;editable=1;overflow=hidden;whiteSpace=wrap;html=1;" parent="piJNV3xV2iv5CXKUrv6N-4" vertex="1">
          <mxGeometry width="30" height="30" as="geometry">
            <mxRectangle width="30" height="30" as="alternateBounds" />
          </mxGeometry>
        </mxCell>
        <mxCell id="piJNV3xV2iv5CXKUrv6N-6" value="name (text)" style="shape=partialRectangle;connectable=0;fillColor=none;top=0;left=0;bottom=0;right=0;align=left;spacingLeft=6;overflow=hidden;whiteSpace=wrap;html=1;" parent="piJNV3xV2iv5CXKUrv6N-4" vertex="1">
          <mxGeometry x="30" width="240" height="30" as="geometry">
            <mxRectangle width="240" height="30" as="alternateBounds" />
          </mxGeometry>
        </mxCell>
        <mxCell id="piJNV3xV2iv5CXKUrv6N-69" value="" style="shape=tableRow;horizontal=0;startSize=0;swimlaneHead=0;swimlaneBody=0;fillColor=none;collapsible=0;dropTarget=0;points=[[0,0.5],[1,0.5]];portConstraint=eastwest;top=0;left=0;right=0;bottom=0;" parent="piJNV3xV2iv5CXKUrv6N-0" vertex="1">
          <mxGeometry y="90" width="270" height="30" as="geometry" />
        </mxCell>
        <mxCell id="piJNV3xV2iv5CXKUrv6N-70" value="" style="shape=partialRectangle;connectable=0;fillColor=none;top=0;left=0;bottom=0;right=0;editable=1;overflow=hidden;whiteSpace=wrap;html=1;" parent="piJNV3xV2iv5CXKUrv6N-69" vertex="1">
          <mxGeometry width="30" height="30" as="geometry">
            <mxRectangle width="30" height="30" as="alternateBounds" />
          </mxGeometry>
        </mxCell>
        <mxCell id="piJNV3xV2iv5CXKUrv6N-71" value="datetime_created (timestamp)" style="shape=partialRectangle;connectable=0;fillColor=none;top=0;left=0;bottom=0;right=0;align=left;spacingLeft=6;overflow=hidden;whiteSpace=wrap;html=1;" parent="piJNV3xV2iv5CXKUrv6N-69" vertex="1">
          <mxGeometry x="30" width="240" height="30" as="geometry">
            <mxRectangle width="240" height="30" as="alternateBounds" />
          </mxGeometry>
        </mxCell>
        <mxCell id="piJNV3xV2iv5CXKUrv6N-82" value="" style="shape=tableRow;horizontal=0;startSize=0;swimlaneHead=0;swimlaneBody=0;fillColor=none;collapsible=0;dropTarget=0;points=[[0,0.5],[1,0.5]];portConstraint=eastwest;top=0;left=0;right=0;bottom=0;" parent="piJNV3xV2iv5CXKUrv6N-0" vertex="1">
          <mxGeometry y="120" width="270" height="30" as="geometry" />
        </mxCell>
        <mxCell id="piJNV3xV2iv5CXKUrv6N-83" value="" style="shape=partialRectangle;connectable=0;fillColor=none;top=0;left=0;bottom=0;right=0;editable=1;overflow=hidden;whiteSpace=wrap;html=1;" parent="piJNV3xV2iv5CXKUrv6N-82" vertex="1">
          <mxGeometry width="30" height="30" as="geometry">
            <mxRectangle width="30" height="30" as="alternateBounds" />
          </mxGeometry>
        </mxCell>
        <mxCell id="piJNV3xV2iv5CXKUrv6N-84" value="datetime_last_modified (timestamp)" style="shape=partialRectangle;connectable=0;fillColor=none;top=0;left=0;bottom=0;right=0;align=left;spacingLeft=6;overflow=hidden;whiteSpace=wrap;html=1;" parent="piJNV3xV2iv5CXKUrv6N-82" vertex="1">
          <mxGeometry x="30" width="240" height="30" as="geometry">
            <mxRectangle width="240" height="30" as="alternateBounds" />
          </mxGeometry>
        </mxCell>
        <mxCell id="piJNV3xV2iv5CXKUrv6N-13" value="funds" style="shape=table;startSize=30;container=1;collapsible=1;childLayout=tableLayout;fixedRows=1;rowLines=0;fontStyle=1;align=center;resizeLast=1;html=1;" parent="WIyWlLk6GJQsqaUBKTNV-1" vertex="1">
          <mxGeometry x="970" y="80" width="300" height="210" as="geometry" />
        </mxCell>
        <mxCell id="piJNV3xV2iv5CXKUrv6N-14" value="" style="shape=tableRow;horizontal=0;startSize=0;swimlaneHead=0;swimlaneBody=0;fillColor=none;collapsible=0;dropTarget=0;points=[[0,0.5],[1,0.5]];portConstraint=eastwest;top=0;left=0;right=0;bottom=1;" parent="piJNV3xV2iv5CXKUrv6N-13" vertex="1">
          <mxGeometry y="30" width="300" height="30" as="geometry" />
        </mxCell>
        <mxCell id="piJNV3xV2iv5CXKUrv6N-15" value="PK" style="shape=partialRectangle;connectable=0;fillColor=none;top=0;left=0;bottom=0;right=0;fontStyle=1;overflow=hidden;whiteSpace=wrap;html=1;" parent="piJNV3xV2iv5CXKUrv6N-14" vertex="1">
          <mxGeometry width="30" height="30" as="geometry">
            <mxRectangle width="30" height="30" as="alternateBounds" />
          </mxGeometry>
        </mxCell>
        <mxCell id="piJNV3xV2iv5CXKUrv6N-16" value="id (int)" style="shape=partialRectangle;connectable=0;fillColor=none;top=0;left=0;bottom=0;right=0;align=left;spacingLeft=6;fontStyle=5;overflow=hidden;whiteSpace=wrap;html=1;" parent="piJNV3xV2iv5CXKUrv6N-14" vertex="1">
          <mxGeometry x="30" width="270" height="30" as="geometry">
            <mxRectangle width="270" height="30" as="alternateBounds" />
          </mxGeometry>
        </mxCell>
        <mxCell id="piJNV3xV2iv5CXKUrv6N-182" value="" style="shape=tableRow;horizontal=0;startSize=0;swimlaneHead=0;swimlaneBody=0;fillColor=none;collapsible=0;dropTarget=0;points=[[0,0.5],[1,0.5]];portConstraint=eastwest;top=0;left=0;right=0;bottom=0;" parent="piJNV3xV2iv5CXKUrv6N-13" vertex="1">
          <mxGeometry y="60" width="300" height="30" as="geometry" />
        </mxCell>
        <mxCell id="piJNV3xV2iv5CXKUrv6N-183" value="" style="shape=partialRectangle;connectable=0;fillColor=none;top=0;left=0;bottom=0;right=0;editable=1;overflow=hidden;whiteSpace=wrap;html=1;" parent="piJNV3xV2iv5CXKUrv6N-182" vertex="1">
          <mxGeometry width="30" height="30" as="geometry">
            <mxRectangle width="30" height="30" as="alternateBounds" />
          </mxGeometry>
        </mxCell>
        <mxCell id="piJNV3xV2iv5CXKUrv6N-184" value="&lt;u&gt;account_type_id (int)&lt;/u&gt;" style="shape=partialRectangle;connectable=0;fillColor=none;top=0;left=0;bottom=0;right=0;align=left;spacingLeft=6;overflow=hidden;whiteSpace=wrap;html=1;" parent="piJNV3xV2iv5CXKUrv6N-182" vertex="1">
          <mxGeometry x="30" width="270" height="30" as="geometry">
            <mxRectangle width="270" height="30" as="alternateBounds" />
          </mxGeometry>
        </mxCell>
        <mxCell id="piJNV3xV2iv5CXKUrv6N-17" value="" style="shape=tableRow;horizontal=0;startSize=0;swimlaneHead=0;swimlaneBody=0;fillColor=none;collapsible=0;dropTarget=0;points=[[0,0.5],[1,0.5]];portConstraint=eastwest;top=0;left=0;right=0;bottom=0;" parent="piJNV3xV2iv5CXKUrv6N-13" vertex="1">
          <mxGeometry y="90" width="300" height="30" as="geometry" />
        </mxCell>
        <mxCell id="piJNV3xV2iv5CXKUrv6N-18" value="" style="shape=partialRectangle;connectable=0;fillColor=none;top=0;left=0;bottom=0;right=0;editable=1;overflow=hidden;whiteSpace=wrap;html=1;" parent="piJNV3xV2iv5CXKUrv6N-17" vertex="1">
          <mxGeometry width="30" height="30" as="geometry">
            <mxRectangle width="30" height="30" as="alternateBounds" />
          </mxGeometry>
        </mxCell>
        <mxCell id="piJNV3xV2iv5CXKUrv6N-19" value="name (text)" style="shape=partialRectangle;connectable=0;fillColor=none;top=0;left=0;bottom=0;right=0;align=left;spacingLeft=6;overflow=hidden;whiteSpace=wrap;html=1;" parent="piJNV3xV2iv5CXKUrv6N-17" vertex="1">
          <mxGeometry x="30" width="270" height="30" as="geometry">
            <mxRectangle width="270" height="30" as="alternateBounds" />
          </mxGeometry>
        </mxCell>
        <mxCell id="piJNV3xV2iv5CXKUrv6N-135" value="" style="shape=tableRow;horizontal=0;startSize=0;swimlaneHead=0;swimlaneBody=0;fillColor=none;collapsible=0;dropTarget=0;points=[[0,0.5],[1,0.5]];portConstraint=eastwest;top=0;left=0;right=0;bottom=0;" parent="piJNV3xV2iv5CXKUrv6N-13" vertex="1">
          <mxGeometry y="120" width="300" height="30" as="geometry" />
        </mxCell>
        <mxCell id="piJNV3xV2iv5CXKUrv6N-136" value="" style="shape=partialRectangle;connectable=0;fillColor=none;top=0;left=0;bottom=0;right=0;editable=1;overflow=hidden;whiteSpace=wrap;html=1;" parent="piJNV3xV2iv5CXKUrv6N-135" vertex="1">
          <mxGeometry width="30" height="30" as="geometry">
            <mxRectangle width="30" height="30" as="alternateBounds" />
          </mxGeometry>
        </mxCell>
        <mxCell id="piJNV3xV2iv5CXKUrv6N-137" value="active (boolean)" style="shape=partialRectangle;connectable=0;fillColor=none;top=0;left=0;bottom=0;right=0;align=left;spacingLeft=6;overflow=hidden;whiteSpace=wrap;html=1;" parent="piJNV3xV2iv5CXKUrv6N-135" vertex="1">
          <mxGeometry x="30" width="270" height="30" as="geometry">
            <mxRectangle width="270" height="30" as="alternateBounds" />
          </mxGeometry>
        </mxCell>
        <mxCell id="piJNV3xV2iv5CXKUrv6N-85" value="" style="shape=tableRow;horizontal=0;startSize=0;swimlaneHead=0;swimlaneBody=0;fillColor=none;collapsible=0;dropTarget=0;points=[[0,0.5],[1,0.5]];portConstraint=eastwest;top=0;left=0;right=0;bottom=0;" parent="piJNV3xV2iv5CXKUrv6N-13" vertex="1">
          <mxGeometry y="150" width="300" height="30" as="geometry" />
        </mxCell>
        <mxCell id="piJNV3xV2iv5CXKUrv6N-86" value="" style="shape=partialRectangle;connectable=0;fillColor=none;top=0;left=0;bottom=0;right=0;editable=1;overflow=hidden;whiteSpace=wrap;html=1;" parent="piJNV3xV2iv5CXKUrv6N-85" vertex="1">
          <mxGeometry width="30" height="30" as="geometry">
            <mxRectangle width="30" height="30" as="alternateBounds" />
          </mxGeometry>
        </mxCell>
        <mxCell id="piJNV3xV2iv5CXKUrv6N-87" value="datetime_created (timestamp)" style="shape=partialRectangle;connectable=0;fillColor=none;top=0;left=0;bottom=0;right=0;align=left;spacingLeft=6;overflow=hidden;whiteSpace=wrap;html=1;" parent="piJNV3xV2iv5CXKUrv6N-85" vertex="1">
          <mxGeometry x="30" width="270" height="30" as="geometry">
            <mxRectangle width="270" height="30" as="alternateBounds" />
          </mxGeometry>
        </mxCell>
        <mxCell id="piJNV3xV2iv5CXKUrv6N-88" value="" style="shape=tableRow;horizontal=0;startSize=0;swimlaneHead=0;swimlaneBody=0;fillColor=none;collapsible=0;dropTarget=0;points=[[0,0.5],[1,0.5]];portConstraint=eastwest;top=0;left=0;right=0;bottom=0;" parent="piJNV3xV2iv5CXKUrv6N-13" vertex="1">
          <mxGeometry y="180" width="300" height="30" as="geometry" />
        </mxCell>
        <mxCell id="piJNV3xV2iv5CXKUrv6N-89" value="" style="shape=partialRectangle;connectable=0;fillColor=none;top=0;left=0;bottom=0;right=0;editable=1;overflow=hidden;whiteSpace=wrap;html=1;" parent="piJNV3xV2iv5CXKUrv6N-88" vertex="1">
          <mxGeometry width="30" height="30" as="geometry">
            <mxRectangle width="30" height="30" as="alternateBounds" />
          </mxGeometry>
        </mxCell>
        <mxCell id="piJNV3xV2iv5CXKUrv6N-90" value="datetime_last_modified (timestamp)" style="shape=partialRectangle;connectable=0;fillColor=none;top=0;left=0;bottom=0;right=0;align=left;spacingLeft=6;overflow=hidden;whiteSpace=wrap;html=1;" parent="piJNV3xV2iv5CXKUrv6N-88" vertex="1">
          <mxGeometry x="30" width="270" height="30" as="geometry">
            <mxRectangle width="270" height="30" as="alternateBounds" />
          </mxGeometry>
        </mxCell>
        <mxCell id="piJNV3xV2iv5CXKUrv6N-38" value="customers" style="shape=table;startSize=30;container=1;collapsible=1;childLayout=tableLayout;fixedRows=1;rowLines=0;fontStyle=1;align=center;resizeLast=1;html=1;" parent="WIyWlLk6GJQsqaUBKTNV-1" vertex="1">
          <mxGeometry x="270" y="330" width="270" height="180" as="geometry" />
        </mxCell>
        <mxCell id="piJNV3xV2iv5CXKUrv6N-39" value="" style="shape=tableRow;horizontal=0;startSize=0;swimlaneHead=0;swimlaneBody=0;fillColor=none;collapsible=0;dropTarget=0;points=[[0,0.5],[1,0.5]];portConstraint=eastwest;top=0;left=0;right=0;bottom=1;" parent="piJNV3xV2iv5CXKUrv6N-38" vertex="1">
          <mxGeometry y="30" width="270" height="30" as="geometry" />
        </mxCell>
        <mxCell id="piJNV3xV2iv5CXKUrv6N-40" value="PK" style="shape=partialRectangle;connectable=0;fillColor=none;top=0;left=0;bottom=0;right=0;fontStyle=1;overflow=hidden;whiteSpace=wrap;html=1;" parent="piJNV3xV2iv5CXKUrv6N-39" vertex="1">
          <mxGeometry width="30" height="30" as="geometry">
            <mxRectangle width="30" height="30" as="alternateBounds" />
          </mxGeometry>
        </mxCell>
        <mxCell id="piJNV3xV2iv5CXKUrv6N-41" value="id (int)" style="shape=partialRectangle;connectable=0;fillColor=none;top=0;left=0;bottom=0;right=0;align=left;spacingLeft=6;fontStyle=5;overflow=hidden;whiteSpace=wrap;html=1;" parent="piJNV3xV2iv5CXKUrv6N-39" vertex="1">
          <mxGeometry x="30" width="240" height="30" as="geometry">
            <mxRectangle width="240" height="30" as="alternateBounds" />
          </mxGeometry>
        </mxCell>
        <mxCell id="piJNV3xV2iv5CXKUrv6N-42" value="" style="shape=tableRow;horizontal=0;startSize=0;swimlaneHead=0;swimlaneBody=0;fillColor=none;collapsible=0;dropTarget=0;points=[[0,0.5],[1,0.5]];portConstraint=eastwest;top=0;left=0;right=0;bottom=0;" parent="piJNV3xV2iv5CXKUrv6N-38" vertex="1">
          <mxGeometry y="60" width="270" height="30" as="geometry" />
        </mxCell>
        <mxCell id="piJNV3xV2iv5CXKUrv6N-43" value="" style="shape=partialRectangle;connectable=0;fillColor=none;top=0;left=0;bottom=0;right=0;editable=1;overflow=hidden;whiteSpace=wrap;html=1;" parent="piJNV3xV2iv5CXKUrv6N-42" vertex="1">
          <mxGeometry width="30" height="30" as="geometry">
            <mxRectangle width="30" height="30" as="alternateBounds" />
          </mxGeometry>
        </mxCell>
        <mxCell id="piJNV3xV2iv5CXKUrv6N-44" value="&lt;u&gt;company_id (int)&lt;/u&gt;" style="shape=partialRectangle;connectable=0;fillColor=none;top=0;left=0;bottom=0;right=0;align=left;spacingLeft=6;overflow=hidden;whiteSpace=wrap;html=1;" parent="piJNV3xV2iv5CXKUrv6N-42" vertex="1">
          <mxGeometry x="30" width="240" height="30" as="geometry">
            <mxRectangle width="240" height="30" as="alternateBounds" />
          </mxGeometry>
        </mxCell>
        <mxCell id="piJNV3xV2iv5CXKUrv6N-45" value="" style="shape=tableRow;horizontal=0;startSize=0;swimlaneHead=0;swimlaneBody=0;fillColor=none;collapsible=0;dropTarget=0;points=[[0,0.5],[1,0.5]];portConstraint=eastwest;top=0;left=0;right=0;bottom=0;" parent="piJNV3xV2iv5CXKUrv6N-38" vertex="1">
          <mxGeometry y="90" width="270" height="30" as="geometry" />
        </mxCell>
        <mxCell id="piJNV3xV2iv5CXKUrv6N-46" value="" style="shape=partialRectangle;connectable=0;fillColor=none;top=0;left=0;bottom=0;right=0;editable=1;overflow=hidden;whiteSpace=wrap;html=1;" parent="piJNV3xV2iv5CXKUrv6N-45" vertex="1">
          <mxGeometry width="30" height="30" as="geometry">
            <mxRectangle width="30" height="30" as="alternateBounds" />
          </mxGeometry>
        </mxCell>
        <mxCell id="piJNV3xV2iv5CXKUrv6N-47" value="name (text)" style="shape=partialRectangle;connectable=0;fillColor=none;top=0;left=0;bottom=0;right=0;align=left;spacingLeft=6;overflow=hidden;whiteSpace=wrap;html=1;" parent="piJNV3xV2iv5CXKUrv6N-45" vertex="1">
          <mxGeometry x="30" width="240" height="30" as="geometry">
            <mxRectangle width="240" height="30" as="alternateBounds" />
          </mxGeometry>
        </mxCell>
        <mxCell id="piJNV3xV2iv5CXKUrv6N-91" value="" style="shape=tableRow;horizontal=0;startSize=0;swimlaneHead=0;swimlaneBody=0;fillColor=none;collapsible=0;dropTarget=0;points=[[0,0.5],[1,0.5]];portConstraint=eastwest;top=0;left=0;right=0;bottom=0;" parent="piJNV3xV2iv5CXKUrv6N-38" vertex="1">
          <mxGeometry y="120" width="270" height="30" as="geometry" />
        </mxCell>
        <mxCell id="piJNV3xV2iv5CXKUrv6N-92" value="" style="shape=partialRectangle;connectable=0;fillColor=none;top=0;left=0;bottom=0;right=0;editable=1;overflow=hidden;whiteSpace=wrap;html=1;" parent="piJNV3xV2iv5CXKUrv6N-91" vertex="1">
          <mxGeometry width="30" height="30" as="geometry">
            <mxRectangle width="30" height="30" as="alternateBounds" />
          </mxGeometry>
        </mxCell>
        <mxCell id="piJNV3xV2iv5CXKUrv6N-93" value="datetime_created (timestamp)" style="shape=partialRectangle;connectable=0;fillColor=none;top=0;left=0;bottom=0;right=0;align=left;spacingLeft=6;overflow=hidden;whiteSpace=wrap;html=1;" parent="piJNV3xV2iv5CXKUrv6N-91" vertex="1">
          <mxGeometry x="30" width="240" height="30" as="geometry">
            <mxRectangle width="240" height="30" as="alternateBounds" />
          </mxGeometry>
        </mxCell>
        <mxCell id="piJNV3xV2iv5CXKUrv6N-94" value="" style="shape=tableRow;horizontal=0;startSize=0;swimlaneHead=0;swimlaneBody=0;fillColor=none;collapsible=0;dropTarget=0;points=[[0,0.5],[1,0.5]];portConstraint=eastwest;top=0;left=0;right=0;bottom=0;" parent="piJNV3xV2iv5CXKUrv6N-38" vertex="1">
          <mxGeometry y="150" width="270" height="30" as="geometry" />
        </mxCell>
        <mxCell id="piJNV3xV2iv5CXKUrv6N-95" value="" style="shape=partialRectangle;connectable=0;fillColor=none;top=0;left=0;bottom=0;right=0;editable=1;overflow=hidden;whiteSpace=wrap;html=1;" parent="piJNV3xV2iv5CXKUrv6N-94" vertex="1">
          <mxGeometry width="30" height="30" as="geometry">
            <mxRectangle width="30" height="30" as="alternateBounds" />
          </mxGeometry>
        </mxCell>
        <mxCell id="piJNV3xV2iv5CXKUrv6N-96" value="datetime_last_modified (timestamp)" style="shape=partialRectangle;connectable=0;fillColor=none;top=0;left=0;bottom=0;right=0;align=left;spacingLeft=6;overflow=hidden;whiteSpace=wrap;html=1;" parent="piJNV3xV2iv5CXKUrv6N-94" vertex="1">
          <mxGeometry x="30" width="240" height="30" as="geometry">
            <mxRectangle width="240" height="30" as="alternateBounds" />
          </mxGeometry>
        </mxCell>
        <mxCell id="piJNV3xV2iv5CXKUrv6N-51" value="companies_funds" style="shape=table;startSize=30;container=1;collapsible=1;childLayout=tableLayout;fixedRows=1;rowLines=0;fontStyle=1;align=center;resizeLast=1;html=1;" parent="WIyWlLk6GJQsqaUBKTNV-1" vertex="1">
          <mxGeometry x="600" y="110" width="300" height="210" as="geometry">
            <mxRectangle x="550" y="100" width="140" height="30" as="alternateBounds" />
          </mxGeometry>
        </mxCell>
        <mxCell id="piJNV3xV2iv5CXKUrv6N-52" value="" style="shape=tableRow;horizontal=0;startSize=0;swimlaneHead=0;swimlaneBody=0;fillColor=none;collapsible=0;dropTarget=0;points=[[0,0.5],[1,0.5]];portConstraint=eastwest;top=0;left=0;right=0;bottom=1;" parent="piJNV3xV2iv5CXKUrv6N-51" vertex="1">
          <mxGeometry y="30" width="300" height="30" as="geometry" />
        </mxCell>
        <mxCell id="piJNV3xV2iv5CXKUrv6N-53" value="CPK" style="shape=partialRectangle;connectable=0;fillColor=none;top=0;left=0;bottom=0;right=0;fontStyle=1;overflow=hidden;whiteSpace=wrap;html=1;" parent="piJNV3xV2iv5CXKUrv6N-52" vertex="1">
          <mxGeometry width="40" height="30" as="geometry">
            <mxRectangle width="40" height="30" as="alternateBounds" />
          </mxGeometry>
        </mxCell>
        <mxCell id="piJNV3xV2iv5CXKUrv6N-54" value="company_id (int)" style="shape=partialRectangle;connectable=0;fillColor=none;top=0;left=0;bottom=0;right=0;align=left;spacingLeft=6;fontStyle=5;overflow=hidden;whiteSpace=wrap;html=1;" parent="piJNV3xV2iv5CXKUrv6N-52" vertex="1">
          <mxGeometry x="40" width="260" height="30" as="geometry">
            <mxRectangle width="260" height="30" as="alternateBounds" />
          </mxGeometry>
        </mxCell>
        <mxCell id="piJNV3xV2iv5CXKUrv6N-129" value="" style="shape=tableRow;horizontal=0;startSize=0;swimlaneHead=0;swimlaneBody=0;fillColor=none;collapsible=0;dropTarget=0;points=[[0,0.5],[1,0.5]];portConstraint=eastwest;top=0;left=0;right=0;bottom=1;" parent="piJNV3xV2iv5CXKUrv6N-51" vertex="1">
          <mxGeometry y="60" width="300" height="30" as="geometry" />
        </mxCell>
        <mxCell id="piJNV3xV2iv5CXKUrv6N-130" value="CPK" style="shape=partialRectangle;connectable=0;fillColor=none;top=0;left=0;bottom=0;right=0;fontStyle=1;overflow=hidden;whiteSpace=wrap;html=1;" parent="piJNV3xV2iv5CXKUrv6N-129" vertex="1">
          <mxGeometry width="40" height="30" as="geometry">
            <mxRectangle width="40" height="30" as="alternateBounds" />
          </mxGeometry>
        </mxCell>
        <mxCell id="piJNV3xV2iv5CXKUrv6N-131" value="fund_id (int)" style="shape=partialRectangle;connectable=0;fillColor=none;top=0;left=0;bottom=0;right=0;align=left;spacingLeft=6;fontStyle=5;overflow=hidden;whiteSpace=wrap;html=1;" parent="piJNV3xV2iv5CXKUrv6N-129" vertex="1">
          <mxGeometry x="40" width="260" height="30" as="geometry">
            <mxRectangle width="260" height="30" as="alternateBounds" />
          </mxGeometry>
        </mxCell>
        <mxCell id="piJNV3xV2iv5CXKUrv6N-132" value="" style="shape=tableRow;horizontal=0;startSize=0;swimlaneHead=0;swimlaneBody=0;fillColor=none;collapsible=0;dropTarget=0;points=[[0,0.5],[1,0.5]];portConstraint=eastwest;top=0;left=0;right=0;bottom=0;" parent="piJNV3xV2iv5CXKUrv6N-51" vertex="1">
          <mxGeometry y="90" width="300" height="30" as="geometry" />
        </mxCell>
        <mxCell id="piJNV3xV2iv5CXKUrv6N-133" value="" style="shape=partialRectangle;connectable=0;fillColor=none;top=0;left=0;bottom=0;right=0;editable=1;overflow=hidden;whiteSpace=wrap;html=1;" parent="piJNV3xV2iv5CXKUrv6N-132" vertex="1">
          <mxGeometry width="40" height="30" as="geometry">
            <mxRectangle width="40" height="30" as="alternateBounds" />
          </mxGeometry>
        </mxCell>
        <mxCell id="piJNV3xV2iv5CXKUrv6N-134" value="active (boolean)" style="shape=partialRectangle;connectable=0;fillColor=none;top=0;left=0;bottom=0;right=0;align=left;spacingLeft=6;overflow=hidden;whiteSpace=wrap;html=1;" parent="piJNV3xV2iv5CXKUrv6N-132" vertex="1">
          <mxGeometry x="40" width="260" height="30" as="geometry">
            <mxRectangle width="260" height="30" as="alternateBounds" />
          </mxGeometry>
        </mxCell>
        <mxCell id="piJNV3xV2iv5CXKUrv6N-55" value="" style="shape=tableRow;horizontal=0;startSize=0;swimlaneHead=0;swimlaneBody=0;fillColor=none;collapsible=0;dropTarget=0;points=[[0,0.5],[1,0.5]];portConstraint=eastwest;top=0;left=0;right=0;bottom=0;" parent="piJNV3xV2iv5CXKUrv6N-51" vertex="1">
          <mxGeometry y="120" width="300" height="30" as="geometry" />
        </mxCell>
        <mxCell id="piJNV3xV2iv5CXKUrv6N-56" value="" style="shape=partialRectangle;connectable=0;fillColor=none;top=0;left=0;bottom=0;right=0;editable=1;overflow=hidden;whiteSpace=wrap;html=1;" parent="piJNV3xV2iv5CXKUrv6N-55" vertex="1">
          <mxGeometry width="40" height="30" as="geometry">
            <mxRectangle width="40" height="30" as="alternateBounds" />
          </mxGeometry>
        </mxCell>
        <mxCell id="piJNV3xV2iv5CXKUrv6N-57" value="datetime_created (timestamp)" style="shape=partialRectangle;connectable=0;fillColor=none;top=0;left=0;bottom=0;right=0;align=left;spacingLeft=6;overflow=hidden;whiteSpace=wrap;html=1;" parent="piJNV3xV2iv5CXKUrv6N-55" vertex="1">
          <mxGeometry x="40" width="260" height="30" as="geometry">
            <mxRectangle width="260" height="30" as="alternateBounds" />
          </mxGeometry>
        </mxCell>
        <mxCell id="piJNV3xV2iv5CXKUrv6N-58" value="" style="shape=tableRow;horizontal=0;startSize=0;swimlaneHead=0;swimlaneBody=0;fillColor=none;collapsible=0;dropTarget=0;points=[[0,0.5],[1,0.5]];portConstraint=eastwest;top=0;left=0;right=0;bottom=0;" parent="piJNV3xV2iv5CXKUrv6N-51" vertex="1">
          <mxGeometry y="150" width="300" height="30" as="geometry" />
        </mxCell>
        <mxCell id="piJNV3xV2iv5CXKUrv6N-59" value="" style="shape=partialRectangle;connectable=0;fillColor=none;top=0;left=0;bottom=0;right=0;editable=1;overflow=hidden;whiteSpace=wrap;html=1;" parent="piJNV3xV2iv5CXKUrv6N-58" vertex="1">
          <mxGeometry width="40" height="30" as="geometry">
            <mxRectangle width="40" height="30" as="alternateBounds" />
          </mxGeometry>
        </mxCell>
        <mxCell id="piJNV3xV2iv5CXKUrv6N-60" value="datetime_modified_to_active (timestamp)" style="shape=partialRectangle;connectable=0;fillColor=none;top=0;left=0;bottom=0;right=0;align=left;spacingLeft=6;overflow=hidden;whiteSpace=wrap;html=1;" parent="piJNV3xV2iv5CXKUrv6N-58" vertex="1">
          <mxGeometry x="40" width="260" height="30" as="geometry">
            <mxRectangle width="260" height="30" as="alternateBounds" />
          </mxGeometry>
        </mxCell>
        <mxCell id="piJNV3xV2iv5CXKUrv6N-138" value="" style="shape=tableRow;horizontal=0;startSize=0;swimlaneHead=0;swimlaneBody=0;fillColor=none;collapsible=0;dropTarget=0;points=[[0,0.5],[1,0.5]];portConstraint=eastwest;top=0;left=0;right=0;bottom=0;" parent="piJNV3xV2iv5CXKUrv6N-51" vertex="1">
          <mxGeometry y="180" width="300" height="30" as="geometry" />
        </mxCell>
        <mxCell id="piJNV3xV2iv5CXKUrv6N-139" value="" style="shape=partialRectangle;connectable=0;fillColor=none;top=0;left=0;bottom=0;right=0;editable=1;overflow=hidden;whiteSpace=wrap;html=1;" parent="piJNV3xV2iv5CXKUrv6N-138" vertex="1">
          <mxGeometry width="40" height="30" as="geometry">
            <mxRectangle width="40" height="30" as="alternateBounds" />
          </mxGeometry>
        </mxCell>
        <mxCell id="piJNV3xV2iv5CXKUrv6N-140" value="datetime_modified_to_deactive (timestamp)" style="shape=partialRectangle;connectable=0;fillColor=none;top=0;left=0;bottom=0;right=0;align=left;spacingLeft=6;overflow=hidden;whiteSpace=wrap;html=1;" parent="piJNV3xV2iv5CXKUrv6N-138" vertex="1">
          <mxGeometry x="40" width="260" height="30" as="geometry">
            <mxRectangle width="260" height="30" as="alternateBounds" />
          </mxGeometry>
        </mxCell>
        <mxCell id="piJNV3xV2iv5CXKUrv6N-113" value="customer_accounts_funds" style="shape=table;startSize=30;container=1;collapsible=1;childLayout=tableLayout;fixedRows=1;rowLines=0;fontStyle=1;align=center;resizeLast=1;html=1;" parent="WIyWlLk6GJQsqaUBKTNV-1" vertex="1">
          <mxGeometry x="1010" y="640" width="270" height="210" as="geometry" />
        </mxCell>
        <mxCell id="piJNV3xV2iv5CXKUrv6N-114" value="" style="shape=tableRow;horizontal=0;startSize=0;swimlaneHead=0;swimlaneBody=0;fillColor=none;collapsible=0;dropTarget=0;points=[[0,0.5],[1,0.5]];portConstraint=eastwest;top=0;left=0;right=0;bottom=1;" parent="piJNV3xV2iv5CXKUrv6N-113" vertex="1">
          <mxGeometry y="30" width="270" height="30" as="geometry" />
        </mxCell>
        <mxCell id="piJNV3xV2iv5CXKUrv6N-115" value="PK" style="shape=partialRectangle;connectable=0;fillColor=none;top=0;left=0;bottom=0;right=0;fontStyle=1;overflow=hidden;whiteSpace=wrap;html=1;" parent="piJNV3xV2iv5CXKUrv6N-114" vertex="1">
          <mxGeometry width="30" height="30" as="geometry">
            <mxRectangle width="30" height="30" as="alternateBounds" />
          </mxGeometry>
        </mxCell>
        <mxCell id="piJNV3xV2iv5CXKUrv6N-116" value="id (int)" style="shape=partialRectangle;connectable=0;fillColor=none;top=0;left=0;bottom=0;right=0;align=left;spacingLeft=6;fontStyle=5;overflow=hidden;whiteSpace=wrap;html=1;" parent="piJNV3xV2iv5CXKUrv6N-114" vertex="1">
          <mxGeometry x="30" width="240" height="30" as="geometry">
            <mxRectangle width="240" height="30" as="alternateBounds" />
          </mxGeometry>
        </mxCell>
        <mxCell id="piJNV3xV2iv5CXKUrv6N-117" value="" style="shape=tableRow;horizontal=0;startSize=0;swimlaneHead=0;swimlaneBody=0;fillColor=none;collapsible=0;dropTarget=0;points=[[0,0.5],[1,0.5]];portConstraint=eastwest;top=0;left=0;right=0;bottom=0;" parent="piJNV3xV2iv5CXKUrv6N-113" vertex="1">
          <mxGeometry y="60" width="270" height="30" as="geometry" />
        </mxCell>
        <mxCell id="piJNV3xV2iv5CXKUrv6N-118" value="" style="shape=partialRectangle;connectable=0;fillColor=none;top=0;left=0;bottom=0;right=0;editable=1;overflow=hidden;whiteSpace=wrap;html=1;" parent="piJNV3xV2iv5CXKUrv6N-117" vertex="1">
          <mxGeometry width="30" height="30" as="geometry">
            <mxRectangle width="30" height="30" as="alternateBounds" />
          </mxGeometry>
        </mxCell>
        <mxCell id="piJNV3xV2iv5CXKUrv6N-119" value="&lt;u&gt;customer_account_no (int)&lt;/u&gt;" style="shape=partialRectangle;connectable=0;fillColor=none;top=0;left=0;bottom=0;right=0;align=left;spacingLeft=6;overflow=hidden;whiteSpace=wrap;html=1;" parent="piJNV3xV2iv5CXKUrv6N-117" vertex="1">
          <mxGeometry x="30" width="240" height="30" as="geometry">
            <mxRectangle width="240" height="30" as="alternateBounds" />
          </mxGeometry>
        </mxCell>
        <mxCell id="piJNV3xV2iv5CXKUrv6N-120" value="" style="shape=tableRow;horizontal=0;startSize=0;swimlaneHead=0;swimlaneBody=0;fillColor=none;collapsible=0;dropTarget=0;points=[[0,0.5],[1,0.5]];portConstraint=eastwest;top=0;left=0;right=0;bottom=0;" parent="piJNV3xV2iv5CXKUrv6N-113" vertex="1">
          <mxGeometry y="90" width="270" height="30" as="geometry" />
        </mxCell>
        <mxCell id="piJNV3xV2iv5CXKUrv6N-121" value="" style="shape=partialRectangle;connectable=0;fillColor=none;top=0;left=0;bottom=0;right=0;editable=1;overflow=hidden;whiteSpace=wrap;html=1;" parent="piJNV3xV2iv5CXKUrv6N-120" vertex="1">
          <mxGeometry width="30" height="30" as="geometry">
            <mxRectangle width="30" height="30" as="alternateBounds" />
          </mxGeometry>
        </mxCell>
        <mxCell id="piJNV3xV2iv5CXKUrv6N-122" value="&lt;u&gt;fund_id (int)&lt;/u&gt;" style="shape=partialRectangle;connectable=0;fillColor=none;top=0;left=0;bottom=0;right=0;align=left;spacingLeft=6;overflow=hidden;whiteSpace=wrap;html=1;" parent="piJNV3xV2iv5CXKUrv6N-120" vertex="1">
          <mxGeometry x="30" width="240" height="30" as="geometry">
            <mxRectangle width="240" height="30" as="alternateBounds" />
          </mxGeometry>
        </mxCell>
        <mxCell id="piJNV3xV2iv5CXKUrv6N-157" value="" style="shape=tableRow;horizontal=0;startSize=0;swimlaneHead=0;swimlaneBody=0;fillColor=none;collapsible=0;dropTarget=0;points=[[0,0.5],[1,0.5]];portConstraint=eastwest;top=0;left=0;right=0;bottom=0;" parent="piJNV3xV2iv5CXKUrv6N-113" vertex="1">
          <mxGeometry y="120" width="270" height="30" as="geometry" />
        </mxCell>
        <mxCell id="piJNV3xV2iv5CXKUrv6N-158" value="" style="shape=partialRectangle;connectable=0;fillColor=none;top=0;left=0;bottom=0;right=0;editable=1;overflow=hidden;whiteSpace=wrap;html=1;" parent="piJNV3xV2iv5CXKUrv6N-157" vertex="1">
          <mxGeometry width="30" height="30" as="geometry">
            <mxRectangle width="30" height="30" as="alternateBounds" />
          </mxGeometry>
        </mxCell>
        <mxCell id="piJNV3xV2iv5CXKUrv6N-159" value="total_amount (int)" style="shape=partialRectangle;connectable=0;fillColor=none;top=0;left=0;bottom=0;right=0;align=left;spacingLeft=6;overflow=hidden;whiteSpace=wrap;html=1;" parent="piJNV3xV2iv5CXKUrv6N-157" vertex="1">
          <mxGeometry x="30" width="240" height="30" as="geometry">
            <mxRectangle width="240" height="30" as="alternateBounds" />
          </mxGeometry>
        </mxCell>
        <mxCell id="piJNV3xV2iv5CXKUrv6N-123" value="" style="shape=tableRow;horizontal=0;startSize=0;swimlaneHead=0;swimlaneBody=0;fillColor=none;collapsible=0;dropTarget=0;points=[[0,0.5],[1,0.5]];portConstraint=eastwest;top=0;left=0;right=0;bottom=0;" parent="piJNV3xV2iv5CXKUrv6N-113" vertex="1">
          <mxGeometry y="150" width="270" height="30" as="geometry" />
        </mxCell>
        <mxCell id="piJNV3xV2iv5CXKUrv6N-124" value="" style="shape=partialRectangle;connectable=0;fillColor=none;top=0;left=0;bottom=0;right=0;editable=1;overflow=hidden;whiteSpace=wrap;html=1;" parent="piJNV3xV2iv5CXKUrv6N-123" vertex="1">
          <mxGeometry width="30" height="30" as="geometry">
            <mxRectangle width="30" height="30" as="alternateBounds" />
          </mxGeometry>
        </mxCell>
        <mxCell id="piJNV3xV2iv5CXKUrv6N-125" value="datetime_created (timestamp)" style="shape=partialRectangle;connectable=0;fillColor=none;top=0;left=0;bottom=0;right=0;align=left;spacingLeft=6;overflow=hidden;whiteSpace=wrap;html=1;" parent="piJNV3xV2iv5CXKUrv6N-123" vertex="1">
          <mxGeometry x="30" width="240" height="30" as="geometry">
            <mxRectangle width="240" height="30" as="alternateBounds" />
          </mxGeometry>
        </mxCell>
        <mxCell id="piJNV3xV2iv5CXKUrv6N-126" value="" style="shape=tableRow;horizontal=0;startSize=0;swimlaneHead=0;swimlaneBody=0;fillColor=none;collapsible=0;dropTarget=0;points=[[0,0.5],[1,0.5]];portConstraint=eastwest;top=0;left=0;right=0;bottom=0;" parent="piJNV3xV2iv5CXKUrv6N-113" vertex="1">
          <mxGeometry y="180" width="270" height="30" as="geometry" />
        </mxCell>
        <mxCell id="piJNV3xV2iv5CXKUrv6N-127" value="" style="shape=partialRectangle;connectable=0;fillColor=none;top=0;left=0;bottom=0;right=0;editable=1;overflow=hidden;whiteSpace=wrap;html=1;" parent="piJNV3xV2iv5CXKUrv6N-126" vertex="1">
          <mxGeometry width="30" height="30" as="geometry">
            <mxRectangle width="30" height="30" as="alternateBounds" />
          </mxGeometry>
        </mxCell>
        <mxCell id="piJNV3xV2iv5CXKUrv6N-128" value="datetime_last_modified (timestamp)" style="shape=partialRectangle;connectable=0;fillColor=none;top=0;left=0;bottom=0;right=0;align=left;spacingLeft=6;overflow=hidden;whiteSpace=wrap;html=1;" parent="piJNV3xV2iv5CXKUrv6N-126" vertex="1">
          <mxGeometry x="30" width="240" height="30" as="geometry">
            <mxRectangle width="240" height="30" as="alternateBounds" />
          </mxGeometry>
        </mxCell>
        <mxCell id="piJNV3xV2iv5CXKUrv6N-141" value="transactions" style="shape=table;startSize=30;container=1;collapsible=1;childLayout=tableLayout;fixedRows=1;rowLines=0;fontStyle=1;align=center;resizeLast=1;html=1;" parent="WIyWlLk6GJQsqaUBKTNV-1" vertex="1">
          <mxGeometry x="860" y="910" width="270" height="150" as="geometry" />
        </mxCell>
        <mxCell id="piJNV3xV2iv5CXKUrv6N-142" value="" style="shape=tableRow;horizontal=0;startSize=0;swimlaneHead=0;swimlaneBody=0;fillColor=none;collapsible=0;dropTarget=0;points=[[0,0.5],[1,0.5]];portConstraint=eastwest;top=0;left=0;right=0;bottom=1;" parent="piJNV3xV2iv5CXKUrv6N-141" vertex="1">
          <mxGeometry y="30" width="270" height="30" as="geometry" />
        </mxCell>
        <mxCell id="piJNV3xV2iv5CXKUrv6N-143" value="PK" style="shape=partialRectangle;connectable=0;fillColor=none;top=0;left=0;bottom=0;right=0;fontStyle=1;overflow=hidden;whiteSpace=wrap;html=1;" parent="piJNV3xV2iv5CXKUrv6N-142" vertex="1">
          <mxGeometry width="30" height="30" as="geometry">
            <mxRectangle width="30" height="30" as="alternateBounds" />
          </mxGeometry>
        </mxCell>
        <mxCell id="piJNV3xV2iv5CXKUrv6N-144" value="id (int)" style="shape=partialRectangle;connectable=0;fillColor=none;top=0;left=0;bottom=0;right=0;align=left;spacingLeft=6;fontStyle=5;overflow=hidden;whiteSpace=wrap;html=1;" parent="piJNV3xV2iv5CXKUrv6N-142" vertex="1">
          <mxGeometry x="30" width="240" height="30" as="geometry">
            <mxRectangle width="240" height="30" as="alternateBounds" />
          </mxGeometry>
        </mxCell>
        <mxCell id="piJNV3xV2iv5CXKUrv6N-145" value="" style="shape=tableRow;horizontal=0;startSize=0;swimlaneHead=0;swimlaneBody=0;fillColor=none;collapsible=0;dropTarget=0;points=[[0,0.5],[1,0.5]];portConstraint=eastwest;top=0;left=0;right=0;bottom=0;" parent="piJNV3xV2iv5CXKUrv6N-141" vertex="1">
          <mxGeometry y="60" width="270" height="30" as="geometry" />
        </mxCell>
        <mxCell id="piJNV3xV2iv5CXKUrv6N-146" value="" style="shape=partialRectangle;connectable=0;fillColor=none;top=0;left=0;bottom=0;right=0;editable=1;overflow=hidden;whiteSpace=wrap;html=1;" parent="piJNV3xV2iv5CXKUrv6N-145" vertex="1">
          <mxGeometry width="30" height="30" as="geometry">
            <mxRectangle width="30" height="30" as="alternateBounds" />
          </mxGeometry>
        </mxCell>
        <mxCell id="piJNV3xV2iv5CXKUrv6N-147" value="&lt;u&gt;customer_accounts_funds_id (int)&lt;/u&gt;" style="shape=partialRectangle;connectable=0;fillColor=none;top=0;left=0;bottom=0;right=0;align=left;spacingLeft=6;overflow=hidden;whiteSpace=wrap;html=1;" parent="piJNV3xV2iv5CXKUrv6N-145" vertex="1">
          <mxGeometry x="30" width="240" height="30" as="geometry">
            <mxRectangle width="240" height="30" as="alternateBounds" />
          </mxGeometry>
        </mxCell>
        <mxCell id="piJNV3xV2iv5CXKUrv6N-160" value="" style="shape=tableRow;horizontal=0;startSize=0;swimlaneHead=0;swimlaneBody=0;fillColor=none;collapsible=0;dropTarget=0;points=[[0,0.5],[1,0.5]];portConstraint=eastwest;top=0;left=0;right=0;bottom=0;" parent="piJNV3xV2iv5CXKUrv6N-141" vertex="1">
          <mxGeometry y="90" width="270" height="30" as="geometry" />
        </mxCell>
        <mxCell id="piJNV3xV2iv5CXKUrv6N-161" value="" style="shape=partialRectangle;connectable=0;fillColor=none;top=0;left=0;bottom=0;right=0;editable=1;overflow=hidden;whiteSpace=wrap;html=1;" parent="piJNV3xV2iv5CXKUrv6N-160" vertex="1">
          <mxGeometry width="30" height="30" as="geometry">
            <mxRectangle width="30" height="30" as="alternateBounds" />
          </mxGeometry>
        </mxCell>
        <mxCell id="piJNV3xV2iv5CXKUrv6N-162" value="amount (int)" style="shape=partialRectangle;connectable=0;fillColor=none;top=0;left=0;bottom=0;right=0;align=left;spacingLeft=6;overflow=hidden;whiteSpace=wrap;html=1;" parent="piJNV3xV2iv5CXKUrv6N-160" vertex="1">
          <mxGeometry x="30" width="240" height="30" as="geometry">
            <mxRectangle width="240" height="30" as="alternateBounds" />
          </mxGeometry>
        </mxCell>
        <mxCell id="piJNV3xV2iv5CXKUrv6N-151" value="" style="shape=tableRow;horizontal=0;startSize=0;swimlaneHead=0;swimlaneBody=0;fillColor=none;collapsible=0;dropTarget=0;points=[[0,0.5],[1,0.5]];portConstraint=eastwest;top=0;left=0;right=0;bottom=0;" parent="piJNV3xV2iv5CXKUrv6N-141" vertex="1">
          <mxGeometry y="120" width="270" height="30" as="geometry" />
        </mxCell>
        <mxCell id="piJNV3xV2iv5CXKUrv6N-152" value="" style="shape=partialRectangle;connectable=0;fillColor=none;top=0;left=0;bottom=0;right=0;editable=1;overflow=hidden;whiteSpace=wrap;html=1;" parent="piJNV3xV2iv5CXKUrv6N-151" vertex="1">
          <mxGeometry width="30" height="30" as="geometry">
            <mxRectangle width="30" height="30" as="alternateBounds" />
          </mxGeometry>
        </mxCell>
        <mxCell id="piJNV3xV2iv5CXKUrv6N-153" value="datetime_created (timestamp)" style="shape=partialRectangle;connectable=0;fillColor=none;top=0;left=0;bottom=0;right=0;align=left;spacingLeft=6;overflow=hidden;whiteSpace=wrap;html=1;" parent="piJNV3xV2iv5CXKUrv6N-151" vertex="1">
          <mxGeometry x="30" width="240" height="30" as="geometry">
            <mxRectangle width="240" height="30" as="alternateBounds" />
          </mxGeometry>
        </mxCell>
        <mxCell id="piJNV3xV2iv5CXKUrv6N-166" value="account_types" style="shape=table;startSize=30;container=1;collapsible=1;childLayout=tableLayout;fixedRows=1;rowLines=0;fontStyle=1;align=center;resizeLast=1;html=1;" parent="WIyWlLk6GJQsqaUBKTNV-1" vertex="1">
          <mxGeometry x="995" y="390" width="300" height="150" as="geometry" />
        </mxCell>
        <mxCell id="piJNV3xV2iv5CXKUrv6N-167" value="" style="shape=tableRow;horizontal=0;startSize=0;swimlaneHead=0;swimlaneBody=0;fillColor=none;collapsible=0;dropTarget=0;points=[[0,0.5],[1,0.5]];portConstraint=eastwest;top=0;left=0;right=0;bottom=1;" parent="piJNV3xV2iv5CXKUrv6N-166" vertex="1">
          <mxGeometry y="30" width="300" height="30" as="geometry" />
        </mxCell>
        <mxCell id="piJNV3xV2iv5CXKUrv6N-168" value="PK" style="shape=partialRectangle;connectable=0;fillColor=none;top=0;left=0;bottom=0;right=0;fontStyle=1;overflow=hidden;whiteSpace=wrap;html=1;" parent="piJNV3xV2iv5CXKUrv6N-167" vertex="1">
          <mxGeometry width="30" height="30" as="geometry">
            <mxRectangle width="30" height="30" as="alternateBounds" />
          </mxGeometry>
        </mxCell>
        <mxCell id="piJNV3xV2iv5CXKUrv6N-169" value="id (int)" style="shape=partialRectangle;connectable=0;fillColor=none;top=0;left=0;bottom=0;right=0;align=left;spacingLeft=6;fontStyle=5;overflow=hidden;whiteSpace=wrap;html=1;" parent="piJNV3xV2iv5CXKUrv6N-167" vertex="1">
          <mxGeometry x="30" width="270" height="30" as="geometry">
            <mxRectangle width="270" height="30" as="alternateBounds" />
          </mxGeometry>
        </mxCell>
        <mxCell id="piJNV3xV2iv5CXKUrv6N-170" value="" style="shape=tableRow;horizontal=0;startSize=0;swimlaneHead=0;swimlaneBody=0;fillColor=none;collapsible=0;dropTarget=0;points=[[0,0.5],[1,0.5]];portConstraint=eastwest;top=0;left=0;right=0;bottom=0;" parent="piJNV3xV2iv5CXKUrv6N-166" vertex="1">
          <mxGeometry y="60" width="300" height="30" as="geometry" />
        </mxCell>
        <mxCell id="piJNV3xV2iv5CXKUrv6N-171" value="" style="shape=partialRectangle;connectable=0;fillColor=none;top=0;left=0;bottom=0;right=0;editable=1;overflow=hidden;whiteSpace=wrap;html=1;" parent="piJNV3xV2iv5CXKUrv6N-170" vertex="1">
          <mxGeometry width="30" height="30" as="geometry">
            <mxRectangle width="30" height="30" as="alternateBounds" />
          </mxGeometry>
        </mxCell>
        <mxCell id="piJNV3xV2iv5CXKUrv6N-172" value="name (text)" style="shape=partialRectangle;connectable=0;fillColor=none;top=0;left=0;bottom=0;right=0;align=left;spacingLeft=6;overflow=hidden;whiteSpace=wrap;html=1;" parent="piJNV3xV2iv5CXKUrv6N-170" vertex="1">
          <mxGeometry x="30" width="270" height="30" as="geometry">
            <mxRectangle width="270" height="30" as="alternateBounds" />
          </mxGeometry>
        </mxCell>
        <mxCell id="piJNV3xV2iv5CXKUrv6N-176" value="" style="shape=tableRow;horizontal=0;startSize=0;swimlaneHead=0;swimlaneBody=0;fillColor=none;collapsible=0;dropTarget=0;points=[[0,0.5],[1,0.5]];portConstraint=eastwest;top=0;left=0;right=0;bottom=0;" parent="piJNV3xV2iv5CXKUrv6N-166" vertex="1">
          <mxGeometry y="90" width="300" height="30" as="geometry" />
        </mxCell>
        <mxCell id="piJNV3xV2iv5CXKUrv6N-177" value="" style="shape=partialRectangle;connectable=0;fillColor=none;top=0;left=0;bottom=0;right=0;editable=1;overflow=hidden;whiteSpace=wrap;html=1;" parent="piJNV3xV2iv5CXKUrv6N-176" vertex="1">
          <mxGeometry width="30" height="30" as="geometry">
            <mxRectangle width="30" height="30" as="alternateBounds" />
          </mxGeometry>
        </mxCell>
        <mxCell id="piJNV3xV2iv5CXKUrv6N-178" value="datetime_created (timestamp)" style="shape=partialRectangle;connectable=0;fillColor=none;top=0;left=0;bottom=0;right=0;align=left;spacingLeft=6;overflow=hidden;whiteSpace=wrap;html=1;" parent="piJNV3xV2iv5CXKUrv6N-176" vertex="1">
          <mxGeometry x="30" width="270" height="30" as="geometry">
            <mxRectangle width="270" height="30" as="alternateBounds" />
          </mxGeometry>
        </mxCell>
        <mxCell id="piJNV3xV2iv5CXKUrv6N-179" value="" style="shape=tableRow;horizontal=0;startSize=0;swimlaneHead=0;swimlaneBody=0;fillColor=none;collapsible=0;dropTarget=0;points=[[0,0.5],[1,0.5]];portConstraint=eastwest;top=0;left=0;right=0;bottom=0;" parent="piJNV3xV2iv5CXKUrv6N-166" vertex="1">
          <mxGeometry y="120" width="300" height="30" as="geometry" />
        </mxCell>
        <mxCell id="piJNV3xV2iv5CXKUrv6N-180" value="" style="shape=partialRectangle;connectable=0;fillColor=none;top=0;left=0;bottom=0;right=0;editable=1;overflow=hidden;whiteSpace=wrap;html=1;" parent="piJNV3xV2iv5CXKUrv6N-179" vertex="1">
          <mxGeometry width="30" height="30" as="geometry">
            <mxRectangle width="30" height="30" as="alternateBounds" />
          </mxGeometry>
        </mxCell>
        <mxCell id="piJNV3xV2iv5CXKUrv6N-181" value="datetime_last_modified (timestamp)" style="shape=partialRectangle;connectable=0;fillColor=none;top=0;left=0;bottom=0;right=0;align=left;spacingLeft=6;overflow=hidden;whiteSpace=wrap;html=1;" parent="piJNV3xV2iv5CXKUrv6N-179" vertex="1">
          <mxGeometry x="30" width="270" height="30" as="geometry">
            <mxRectangle width="270" height="30" as="alternateBounds" />
          </mxGeometry>
        </mxCell>
        <mxCell id="piJNV3xV2iv5CXKUrv6N-185" value="customer_accounts" style="shape=table;startSize=30;container=1;collapsible=1;childLayout=tableLayout;fixedRows=1;rowLines=0;fontStyle=1;align=center;resizeLast=1;html=1;" parent="WIyWlLk6GJQsqaUBKTNV-1" vertex="1">
          <mxGeometry x="630" y="400" width="270" height="180" as="geometry" />
        </mxCell>
        <mxCell id="piJNV3xV2iv5CXKUrv6N-186" value="" style="shape=tableRow;horizontal=0;startSize=0;swimlaneHead=0;swimlaneBody=0;fillColor=none;collapsible=0;dropTarget=0;points=[[0,0.5],[1,0.5]];portConstraint=eastwest;top=0;left=0;right=0;bottom=1;" parent="piJNV3xV2iv5CXKUrv6N-185" vertex="1">
          <mxGeometry y="30" width="270" height="30" as="geometry" />
        </mxCell>
        <mxCell id="piJNV3xV2iv5CXKUrv6N-187" value="PK" style="shape=partialRectangle;connectable=0;fillColor=none;top=0;left=0;bottom=0;right=0;fontStyle=1;overflow=hidden;whiteSpace=wrap;html=1;" parent="piJNV3xV2iv5CXKUrv6N-186" vertex="1">
          <mxGeometry width="30" height="30" as="geometry">
            <mxRectangle width="30" height="30" as="alternateBounds" />
          </mxGeometry>
        </mxCell>
        <mxCell id="piJNV3xV2iv5CXKUrv6N-188" value="customer_account_no (int)" style="shape=partialRectangle;connectable=0;fillColor=none;top=0;left=0;bottom=0;right=0;align=left;spacingLeft=6;fontStyle=5;overflow=hidden;whiteSpace=wrap;html=1;" parent="piJNV3xV2iv5CXKUrv6N-186" vertex="1">
          <mxGeometry x="30" width="240" height="30" as="geometry">
            <mxRectangle width="240" height="30" as="alternateBounds" />
          </mxGeometry>
        </mxCell>
        <mxCell id="piJNV3xV2iv5CXKUrv6N-204" value="" style="shape=tableRow;horizontal=0;startSize=0;swimlaneHead=0;swimlaneBody=0;fillColor=none;collapsible=0;dropTarget=0;points=[[0,0.5],[1,0.5]];portConstraint=eastwest;top=0;left=0;right=0;bottom=0;" parent="piJNV3xV2iv5CXKUrv6N-185" vertex="1">
          <mxGeometry y="60" width="270" height="30" as="geometry" />
        </mxCell>
        <mxCell id="piJNV3xV2iv5CXKUrv6N-205" value="" style="shape=partialRectangle;connectable=0;fillColor=none;top=0;left=0;bottom=0;right=0;editable=1;overflow=hidden;whiteSpace=wrap;html=1;" parent="piJNV3xV2iv5CXKUrv6N-204" vertex="1">
          <mxGeometry width="30" height="30" as="geometry">
            <mxRectangle width="30" height="30" as="alternateBounds" />
          </mxGeometry>
        </mxCell>
        <mxCell id="piJNV3xV2iv5CXKUrv6N-206" value="&lt;u&gt;customer_id (int)&lt;/u&gt;" style="shape=partialRectangle;connectable=0;fillColor=none;top=0;left=0;bottom=0;right=0;align=left;spacingLeft=6;overflow=hidden;whiteSpace=wrap;html=1;" parent="piJNV3xV2iv5CXKUrv6N-204" vertex="1">
          <mxGeometry x="30" width="240" height="30" as="geometry">
            <mxRectangle width="240" height="30" as="alternateBounds" />
          </mxGeometry>
        </mxCell>
        <mxCell id="piJNV3xV2iv5CXKUrv6N-189" value="" style="shape=tableRow;horizontal=0;startSize=0;swimlaneHead=0;swimlaneBody=0;fillColor=none;collapsible=0;dropTarget=0;points=[[0,0.5],[1,0.5]];portConstraint=eastwest;top=0;left=0;right=0;bottom=0;" parent="piJNV3xV2iv5CXKUrv6N-185" vertex="1">
          <mxGeometry y="90" width="270" height="30" as="geometry" />
        </mxCell>
        <mxCell id="piJNV3xV2iv5CXKUrv6N-190" value="" style="shape=partialRectangle;connectable=0;fillColor=none;top=0;left=0;bottom=0;right=0;editable=1;overflow=hidden;whiteSpace=wrap;html=1;" parent="piJNV3xV2iv5CXKUrv6N-189" vertex="1">
          <mxGeometry width="30" height="30" as="geometry">
            <mxRectangle width="30" height="30" as="alternateBounds" />
          </mxGeometry>
        </mxCell>
        <mxCell id="piJNV3xV2iv5CXKUrv6N-191" value="&lt;u&gt;account_type_id (int)&lt;/u&gt;" style="shape=partialRectangle;connectable=0;fillColor=none;top=0;left=0;bottom=0;right=0;align=left;spacingLeft=6;overflow=hidden;whiteSpace=wrap;html=1;" parent="piJNV3xV2iv5CXKUrv6N-189" vertex="1">
          <mxGeometry x="30" width="240" height="30" as="geometry">
            <mxRectangle width="240" height="30" as="alternateBounds" />
          </mxGeometry>
        </mxCell>
        <mxCell id="piJNV3xV2iv5CXKUrv6N-195" value="" style="shape=tableRow;horizontal=0;startSize=0;swimlaneHead=0;swimlaneBody=0;fillColor=none;collapsible=0;dropTarget=0;points=[[0,0.5],[1,0.5]];portConstraint=eastwest;top=0;left=0;right=0;bottom=0;" parent="piJNV3xV2iv5CXKUrv6N-185" vertex="1">
          <mxGeometry y="120" width="270" height="30" as="geometry" />
        </mxCell>
        <mxCell id="piJNV3xV2iv5CXKUrv6N-196" value="" style="shape=partialRectangle;connectable=0;fillColor=none;top=0;left=0;bottom=0;right=0;editable=1;overflow=hidden;whiteSpace=wrap;html=1;" parent="piJNV3xV2iv5CXKUrv6N-195" vertex="1">
          <mxGeometry width="30" height="30" as="geometry">
            <mxRectangle width="30" height="30" as="alternateBounds" />
          </mxGeometry>
        </mxCell>
        <mxCell id="piJNV3xV2iv5CXKUrv6N-197" value="datetime_created (timestamp)" style="shape=partialRectangle;connectable=0;fillColor=none;top=0;left=0;bottom=0;right=0;align=left;spacingLeft=6;overflow=hidden;whiteSpace=wrap;html=1;" parent="piJNV3xV2iv5CXKUrv6N-195" vertex="1">
          <mxGeometry x="30" width="240" height="30" as="geometry">
            <mxRectangle width="240" height="30" as="alternateBounds" />
          </mxGeometry>
        </mxCell>
        <mxCell id="piJNV3xV2iv5CXKUrv6N-198" value="" style="shape=tableRow;horizontal=0;startSize=0;swimlaneHead=0;swimlaneBody=0;fillColor=none;collapsible=0;dropTarget=0;points=[[0,0.5],[1,0.5]];portConstraint=eastwest;top=0;left=0;right=0;bottom=0;" parent="piJNV3xV2iv5CXKUrv6N-185" vertex="1">
          <mxGeometry y="150" width="270" height="30" as="geometry" />
        </mxCell>
        <mxCell id="piJNV3xV2iv5CXKUrv6N-199" value="" style="shape=partialRectangle;connectable=0;fillColor=none;top=0;left=0;bottom=0;right=0;editable=1;overflow=hidden;whiteSpace=wrap;html=1;" parent="piJNV3xV2iv5CXKUrv6N-198" vertex="1">
          <mxGeometry width="30" height="30" as="geometry">
            <mxRectangle width="30" height="30" as="alternateBounds" />
          </mxGeometry>
        </mxCell>
        <mxCell id="piJNV3xV2iv5CXKUrv6N-200" value="datetime_last_modified (timestamp)" style="shape=partialRectangle;connectable=0;fillColor=none;top=0;left=0;bottom=0;right=0;align=left;spacingLeft=6;overflow=hidden;whiteSpace=wrap;html=1;" parent="piJNV3xV2iv5CXKUrv6N-198" vertex="1">
          <mxGeometry x="30" width="240" height="30" as="geometry">
            <mxRectangle width="240" height="30" as="alternateBounds" />
          </mxGeometry>
        </mxCell>
        <mxCell id="piJNV3xV2iv5CXKUrv6N-222" value="" style="endArrow=none;html=1;rounded=0;entryX=0;entryY=0.5;entryDx=0;entryDy=0;exitX=1;exitY=0.5;exitDx=0;exitDy=0;" parent="WIyWlLk6GJQsqaUBKTNV-1" source="piJNV3xV2iv5CXKUrv6N-1" target="piJNV3xV2iv5CXKUrv6N-52" edge="1">
          <mxGeometry relative="1" as="geometry">
            <mxPoint x="190" y="520" as="sourcePoint" />
            <mxPoint x="350" y="520" as="targetPoint" />
            <Array as="points">
              <mxPoint x="560" y="125" />
              <mxPoint x="560" y="155" />
            </Array>
          </mxGeometry>
        </mxCell>
        <mxCell id="piJNV3xV2iv5CXKUrv6N-223" value="" style="endArrow=none;html=1;rounded=0;entryX=0;entryY=0.5;entryDx=0;entryDy=0;exitX=1;exitY=0.5;exitDx=0;exitDy=0;" parent="WIyWlLk6GJQsqaUBKTNV-1" source="piJNV3xV2iv5CXKUrv6N-129" target="piJNV3xV2iv5CXKUrv6N-14" edge="1">
          <mxGeometry relative="1" as="geometry">
            <mxPoint x="190" y="520" as="sourcePoint" />
            <mxPoint x="350" y="520" as="targetPoint" />
            <Array as="points">
              <mxPoint x="930" y="185" />
              <mxPoint x="930" y="125" />
            </Array>
          </mxGeometry>
        </mxCell>
        <mxCell id="piJNV3xV2iv5CXKUrv6N-230" value="" style="group" parent="WIyWlLk6GJQsqaUBKTNV-1" vertex="1" connectable="0">
          <mxGeometry x="1270.0000000000002" y="150" width="109.99999999999977" height="285" as="geometry" />
        </mxCell>
        <mxCell id="piJNV3xV2iv5CXKUrv6N-225" value="" style="endArrow=none;html=1;rounded=0;exitX=1;exitY=0.5;exitDx=0;exitDy=0;entryX=1;entryY=0.5;entryDx=0;entryDy=0;" parent="piJNV3xV2iv5CXKUrv6N-230" source="piJNV3xV2iv5CXKUrv6N-167" target="piJNV3xV2iv5CXKUrv6N-182" edge="1">
          <mxGeometry width="50" height="50" relative="1" as="geometry">
            <mxPoint x="69.99999999999977" y="280" as="sourcePoint" />
            <mxPoint x="119.99999999999977" y="230" as="targetPoint" />
            <Array as="points">
              <mxPoint x="109.99999999999977" y="285" />
              <mxPoint x="109.99999999999977" y="5" />
            </Array>
          </mxGeometry>
        </mxCell>
        <mxCell id="piJNV3xV2iv5CXKUrv6N-229" value="" style="shape=image;verticalLabelPosition=bottom;labelBackgroundColor=default;verticalAlign=top;aspect=fixed;imageAspect=0;image=data:image/png,iVBORw0KGgoAAAANSUhEUgAAALMAAADFCAYAAAAfb8MvAAABVmlDQ1BJQ0MgUHJvZmlsZQAAGJV1kL1Lw1AUxU9qQ0UKOnTo4BChfgxVpCnYte1QBIdQP1C3JI2pkKaPJCI6KzgWxEFw0LqLky4ODu4iioOIi4N/gNhFS7yvVdMq3sfl/DjvcLlcIASVMSsMoGJ7TrGQkxaXlqXIC3ohIkbfQ6rusqyizFAE39pdjXsIXG/H+ayp4QvxyD0JCZvPofjN3ujffFf1lQxXJ/2gHtOZ4wFCglhZ9xhnasQcWop4h7PZ5gPOWptPW5m5Yp74inhAL6sl4jvipNbhmx1csdb0rx349lHDnp/lSj2IBRQgI00v808u3crlUQXDBhyswkQZHiRkyWGwYBBPw4aOCSSJU5iklvl9f98t8Kp1IPMG9NQCT9sHzreB+EPgJQ6B/i3g7JqpjvpzTaERdlfkVJujOUB88v3XESCyCzRrvv9e9/3mMc1/BC7tT6+UYHjOX8wRAAAAVmVYSWZNTQAqAAAACAABh2kABAAAAAEAAAAaAAAAAAADkoYABwAAABIAAABEoAIABAAAAAEAAACzoAMABAAAAAEAAADFAAAAAEFTQ0lJAAAAU2NyZWVuc2hvdKVsKK4AAAHWaVRYdFhNTDpjb20uYWRvYmUueG1wAAAAAAA8eDp4bXBtZXRhIHhtbG5zOng9ImFkb2JlOm5zOm1ldGEvIiB4OnhtcHRrPSJYTVAgQ29yZSA2LjAuMCI+CiAgIDxyZGY6UkRGIHhtbG5zOnJkZj0iaHR0cDovL3d3dy53My5vcmcvMTk5OS8wMi8yMi1yZGYtc3ludGF4LW5zIyI+CiAgICAgIDxyZGY6RGVzY3JpcHRpb24gcmRmOmFib3V0PSIiCiAgICAgICAgICAgIHhtbG5zOmV4aWY9Imh0dHA6Ly9ucy5hZG9iZS5jb20vZXhpZi8xLjAvIj4KICAgICAgICAgPGV4aWY6UGl4ZWxZRGltZW5zaW9uPjE5NzwvZXhpZjpQaXhlbFlEaW1lbnNpb24+CiAgICAgICAgIDxleGlmOlBpeGVsWERpbWVuc2lvbj4xNzk8L2V4aWY6UGl4ZWxYRGltZW5zaW9uPgogICAgICAgICA8ZXhpZjpVc2VyQ29tbWVudD5TY3JlZW5zaG90PC9leGlmOlVzZXJDb21tZW50PgogICAgICA8L3JkZjpEZXNjcmlwdGlvbj4KICAgPC9yZGY6UkRGPgo8L3g6eG1wbWV0YT4KFfwLhQAACAFJREFUeAHtnYtx2zgURSnPFmJ3IlUmqzKrBJegEtyBYmpzM5JMwgCI3wOOZpxnER8+nHvCWXsTZ3f9fk28IGCYwOFwmM7n8/Ri+Ay0DoEHAsj8gIM3lgkgs+X06P2BADI/4OCNRQKXy+XWNjJbTI+ebwTe39+n3W43Seb/4AIBawRmiU+n04+2kfkHEi60SmBNYvWLzCJBbZbAbxKrcWQWCWpzBHwlVuPILBLUZgiESqzGvb+bMd9g/sox5cf8vyB5QUAE5NjSF3ea46o8mV10GCtCIPZJ/NwcMj8T4X0xAqkkVsPILBLUYgRSS6zGkVkkqNkJ5JJYjSOzSFCzEcgtsRpHZpGgJidQSmI1jswiQU1GoLTEahyZRYK6mUAtidU4MosENZpAbYnVODKLBDWYQCsSq3FkFgmqN4HWJFbjyCwS1F8JtCqxGkdmkaCuEmhdYjWOzCJB/UHAisRqHJlFgvqPgDWJ1TgyiwR1siqxovP+w/laQO2PwCzx/JcuYv9QfE0ix+Nx2u/3txaQuWYSle9tXeL5Z37OZ9CL/8wQiYHqLIDFp/Ac0fwkvhf4PjZkvqfR+ee9SqzYkFkkOq69S6zokFkkOqyjSKzokFkkOqqjSazokFkkOqijSqzokFkkDNfRJVZ0yCwSBisSP4aGzI88TLxD4uWYkHmZS5NXkdgdCzK7+TQxisR+MSCzH6cqs5A4DDsyh/EqMhuJ4zAjcxy3LKuQeBtWZN7GL8lqJE6CcULmNByjdkHiKGyri5B5FU2+ASTOwxaZ83Bd3BWJF7Eku4jMyVCub4TE62xSjiBzSppPeyHxE5DMb5E5A2AkzgDVY0tk9oDkOwWJfUnlmYfMCbgicQKICbZA5g0QkXgDvAxLkTkCKhJHQCuwBJkDICNxAKwKU5HZAzoSe0BqYAoyO0JAYgecBoeQeSEUJF6AYuASMt+FhMR3MAx+iszfoSGxQXMXWh5aZiReMMLwpSFlRmLDxjpaH0pmJHaY0MHQEDIjcQemehyha5mR2MOAjqZ0KTMSd2RowFG6khmJA5LvcGoXMiNxh2ZGHMm0zEgckXjHS0zKjMQdG7nhaKZkRuINSQ+w1ITMSDyAiQmO2LTMSJwg4YG2aFJmJB7IwIRHbUpmJE6Y7IBbNSEzEg9oXoYjV5X5dDpNh8Mhw7Hyb3k8Hqf5NyGvdghUlfl8PrdDwrMTJPYEVWFaVZkrnDf6lkgcja7YQmT+BTUS/wKooWFkXgkDiVfANHwZmZ/CQeInIIbeIvPfsJDYkLUrre6+r19XxrgMAVMEXkx1S7MQcBBAZgcchmwRQGZbedGtgwAyO+AwZIsAMtvKi24dBJDZAYchWwSQ2VZedOsggMwOOAzZIoDMtvKiWwcBZHbAYcgWAWS2lRfdOgggswMOQ7YIILOtvOjWQQCZHXAYskUAmW3lRbcOAsjsgMOQLQLIbCsvunUQQGYHHIZsEUBmW3nRrYMAMjvgMGSLwMv1ep18Pua/vdzra7/fTx8fH14cfFgxx8+pVJzm/OYXT+ZvCPPPvJt/gOP8YfHn392S5BdkvncAqe9p2PucJ/NCZki9AMXAJWR2hITUDjgNDiGzRyhI7QGpgSlVZdZXoQ1w8GoBqb0wVZtUVeb5233zt2esfdsPqav56rxxVZnV2fxvgyC1aFBjCTQhs5pHapGgxhBoSmYdAKlFghpCoEmZdQCkFgmqD4GmZdYBkFokqC4CJmTWAZBaJKhLBEzJrAMgtUhQ7wmYlFkHQGqRoM4ETMusCJFaJMauXcisCJFaJMasXcmsCJFaJMaqXcqsCJFaJMaoXcusCJFaJPquQ8isCJFaJPqsQ8msCJFaJPqqQ8qsCJFaJPqoQ8usCJFaJGxXZL7LD6nvYBj8FJkXQkPqBSgGLiGzIySkdsBpcAiZPUJBag9IDUxB5oAQkDoAVoWpyBwBHakjoBVYgswbICP1BngZliJzAqhInQBigi2QOQFEbYHUIlGnInMG7kidAarHlsjsASl2ClLHkotbh8xx3IJWIXUQrujJyByNLnwhUoczC1mBzCG0Es1F6kQgn7ZB5icgJd8idVrayJyWZ9RuSB2F7cciZP6BpN4FpN7GHpm38cuyGqnjsCJzHLciq5A6DDMyh/GqMhup/bAjsx+nJmYhtTsGZHbzaXIUqZdjQeZlLiauIvVjTMj8yMPkO6T+PzZkNqnvctOjS43My16Yvjqq1MhsWlt386NJjcxuH7oYHUVqZO5CV79D9C41Mvt50NWsXqVG5q40DTtMb1Ijc1j+Xc62LvXn5+ctF2TuUs+4Q1mV+uvrC5njIu9/lVWpeTL372b0Ca1JjczRUY+z0IrUyDyOk5tP2rrUyLw54vE2aFVqZB7PxWQnbk1qZE4W7bgbtSI1Mo/rYPKT15YamZNHyoa1pEZm3MtGoLTUyJwtSjYWgVJSI7OIU7MTyC01MmePkBs8E8glNTI/k+Z9MQKppUbmYtFxozUCqaTeXb9fazfhOgRqEJjlPp1OwbfmyRyMjAW5CcQ+qZE5dzLsH00gVGpkjkbNwlIEfKVG5lKJcJ/NBH6TGpk3I2aD0gTWpOa7GaWT4H7JCby9vU2Xy2XiyZwcLRuWJvD6+nq7JTKXJs/9shFA5mxo2bg0AWQuTZz7ZSOAzNnQsnFpAshcmjj3y0YAmbOhZePSBJC5NHHul40AMmdDy8alCSBzaeLcLxsBZM6Glo1LE0Dm0sS5XzYCfwC4ig/9JGgU7gAAAABJRU5ErkJggg==;rotation=-180;" parent="piJNV3xV2iv5CXKUrv6N-230" vertex="1">
          <mxGeometry x="-2.2737367544323206e-13" width="9.09" height="10" as="geometry" />
        </mxCell>
        <mxCell id="piJNV3xV2iv5CXKUrv6N-233" value="" style="group" parent="WIyWlLk6GJQsqaUBKTNV-1" vertex="1" connectable="0">
          <mxGeometry x="220" y="125" width="50" height="285" as="geometry" />
        </mxCell>
        <mxCell id="piJNV3xV2iv5CXKUrv6N-226" value="" style="endArrow=none;html=1;rounded=0;exitX=0;exitY=0.5;exitDx=0;exitDy=0;" parent="piJNV3xV2iv5CXKUrv6N-233" source="piJNV3xV2iv5CXKUrv6N-1" edge="1">
          <mxGeometry relative="1" as="geometry">
            <mxPoint x="10" y="279.4117647058824" as="sourcePoint" />
            <mxPoint y="279.4117647058824" as="targetPoint" />
            <Array as="points">
              <mxPoint />
              <mxPoint y="279.4117647058824" />
              <mxPoint x="50" y="279.4117647058824" />
            </Array>
          </mxGeometry>
        </mxCell>
        <mxCell id="piJNV3xV2iv5CXKUrv6N-231" value="" style="shape=image;verticalLabelPosition=bottom;labelBackgroundColor=default;verticalAlign=top;aspect=fixed;imageAspect=0;image=data:image/png,iVBORw0KGgoAAAANSUhEUgAAALMAAADFCAYAAAAfb8MvAAABVmlDQ1BJQ0MgUHJvZmlsZQAAGJV1kL1Lw1AUxU9qQ0UKOnTo4BChfgxVpCnYte1QBIdQP1C3JI2pkKaPJCI6KzgWxEFw0LqLky4ODu4iioOIi4N/gNhFS7yvVdMq3sfl/DjvcLlcIASVMSsMoGJ7TrGQkxaXlqXIC3ohIkbfQ6rusqyizFAE39pdjXsIXG/H+ayp4QvxyD0JCZvPofjN3ujffFf1lQxXJ/2gHtOZ4wFCglhZ9xhnasQcWop4h7PZ5gPOWptPW5m5Yp74inhAL6sl4jvipNbhmx1csdb0rx349lHDnp/lSj2IBRQgI00v808u3crlUQXDBhyswkQZHiRkyWGwYBBPw4aOCSSJU5iklvl9f98t8Kp1IPMG9NQCT9sHzreB+EPgJQ6B/i3g7JqpjvpzTaERdlfkVJujOUB88v3XESCyCzRrvv9e9/3mMc1/BC7tT6+UYHjOX8wRAAAAVmVYSWZNTQAqAAAACAABh2kABAAAAAEAAAAaAAAAAAADkoYABwAAABIAAABEoAIABAAAAAEAAACzoAMABAAAAAEAAADFAAAAAEFTQ0lJAAAAU2NyZWVuc2hvdKVsKK4AAAHWaVRYdFhNTDpjb20uYWRvYmUueG1wAAAAAAA8eDp4bXBtZXRhIHhtbG5zOng9ImFkb2JlOm5zOm1ldGEvIiB4OnhtcHRrPSJYTVAgQ29yZSA2LjAuMCI+CiAgIDxyZGY6UkRGIHhtbG5zOnJkZj0iaHR0cDovL3d3dy53My5vcmcvMTk5OS8wMi8yMi1yZGYtc3ludGF4LW5zIyI+CiAgICAgIDxyZGY6RGVzY3JpcHRpb24gcmRmOmFib3V0PSIiCiAgICAgICAgICAgIHhtbG5zOmV4aWY9Imh0dHA6Ly9ucy5hZG9iZS5jb20vZXhpZi8xLjAvIj4KICAgICAgICAgPGV4aWY6UGl4ZWxZRGltZW5zaW9uPjE5NzwvZXhpZjpQaXhlbFlEaW1lbnNpb24+CiAgICAgICAgIDxleGlmOlBpeGVsWERpbWVuc2lvbj4xNzk8L2V4aWY6UGl4ZWxYRGltZW5zaW9uPgogICAgICAgICA8ZXhpZjpVc2VyQ29tbWVudD5TY3JlZW5zaG90PC9leGlmOlVzZXJDb21tZW50PgogICAgICA8L3JkZjpEZXNjcmlwdGlvbj4KICAgPC9yZGY6UkRGPgo8L3g6eG1wbWV0YT4KFfwLhQAACAFJREFUeAHtnYtx2zgURSnPFmJ3IlUmqzKrBJegEtyBYmpzM5JMwgCI3wOOZpxnER8+nHvCWXsTZ3f9fk28IGCYwOFwmM7n8/Ri+Ay0DoEHAsj8gIM3lgkgs+X06P2BADI/4OCNRQKXy+XWNjJbTI+ebwTe39+n3W43Seb/4AIBawRmiU+n04+2kfkHEi60SmBNYvWLzCJBbZbAbxKrcWQWCWpzBHwlVuPILBLUZgiESqzGvb+bMd9g/sox5cf8vyB5QUAE5NjSF3ea46o8mV10GCtCIPZJ/NwcMj8T4X0xAqkkVsPILBLUYgRSS6zGkVkkqNkJ5JJYjSOzSFCzEcgtsRpHZpGgJidQSmI1jswiQU1GoLTEahyZRYK6mUAtidU4MosENZpAbYnVODKLBDWYQCsSq3FkFgmqN4HWJFbjyCwS1F8JtCqxGkdmkaCuEmhdYjWOzCJB/UHAisRqHJlFgvqPgDWJ1TgyiwR1siqxovP+w/laQO2PwCzx/JcuYv9QfE0ix+Nx2u/3txaQuWYSle9tXeL5Z37OZ9CL/8wQiYHqLIDFp/Ac0fwkvhf4PjZkvqfR+ee9SqzYkFkkOq69S6zokFkkOqyjSKzokFkkOqqjSazokFkkOqijSqzokFkkDNfRJVZ0yCwSBisSP4aGzI88TLxD4uWYkHmZS5NXkdgdCzK7+TQxisR+MSCzH6cqs5A4DDsyh/EqMhuJ4zAjcxy3LKuQeBtWZN7GL8lqJE6CcULmNByjdkHiKGyri5B5FU2+ASTOwxaZ83Bd3BWJF7Eku4jMyVCub4TE62xSjiBzSppPeyHxE5DMb5E5A2AkzgDVY0tk9oDkOwWJfUnlmYfMCbgicQKICbZA5g0QkXgDvAxLkTkCKhJHQCuwBJkDICNxAKwKU5HZAzoSe0BqYAoyO0JAYgecBoeQeSEUJF6AYuASMt+FhMR3MAx+iszfoSGxQXMXWh5aZiReMMLwpSFlRmLDxjpaH0pmJHaY0MHQEDIjcQemehyha5mR2MOAjqZ0KTMSd2RowFG6khmJA5LvcGoXMiNxh2ZGHMm0zEgckXjHS0zKjMQdG7nhaKZkRuINSQ+w1ITMSDyAiQmO2LTMSJwg4YG2aFJmJB7IwIRHbUpmJE6Y7IBbNSEzEg9oXoYjV5X5dDpNh8Mhw7Hyb3k8Hqf5NyGvdghUlfl8PrdDwrMTJPYEVWFaVZkrnDf6lkgcja7YQmT+BTUS/wKooWFkXgkDiVfANHwZmZ/CQeInIIbeIvPfsJDYkLUrre6+r19XxrgMAVMEXkx1S7MQcBBAZgcchmwRQGZbedGtgwAyO+AwZIsAMtvKi24dBJDZAYchWwSQ2VZedOsggMwOOAzZIoDMtvKiWwcBZHbAYcgWAWS2lRfdOgggswMOQ7YIILOtvOjWQQCZHXAYskUAmW3lRbcOAsjsgMOQLQLIbCsvunUQQGYHHIZsEUBmW3nRrYMAMjvgMGSLwMv1ep18Pua/vdzra7/fTx8fH14cfFgxx8+pVJzm/OYXT+ZvCPPPvJt/gOP8YfHn392S5BdkvncAqe9p2PucJ/NCZki9AMXAJWR2hITUDjgNDiGzRyhI7QGpgSlVZdZXoQ1w8GoBqb0wVZtUVeb5233zt2esfdsPqav56rxxVZnV2fxvgyC1aFBjCTQhs5pHapGgxhBoSmYdAKlFghpCoEmZdQCkFgmqD4GmZdYBkFokqC4CJmTWAZBaJKhLBEzJrAMgtUhQ7wmYlFkHQGqRoM4ETMusCJFaJMauXcisCJFaJMasXcmsCJFaJMaqXcqsCJFaJMaoXcusCJFaJPquQ8isCJFaJPqsQ8msCJFaJPqqQ8qsCJFaJPqoQ8usCJFaJGxXZL7LD6nvYBj8FJkXQkPqBSgGLiGzIySkdsBpcAiZPUJBag9IDUxB5oAQkDoAVoWpyBwBHakjoBVYgswbICP1BngZliJzAqhInQBigi2QOQFEbYHUIlGnInMG7kidAarHlsjsASl2ClLHkotbh8xx3IJWIXUQrujJyByNLnwhUoczC1mBzCG0Es1F6kQgn7ZB5icgJd8idVrayJyWZ9RuSB2F7cciZP6BpN4FpN7GHpm38cuyGqnjsCJzHLciq5A6DDMyh/GqMhup/bAjsx+nJmYhtTsGZHbzaXIUqZdjQeZlLiauIvVjTMj8yMPkO6T+PzZkNqnvctOjS43My16Yvjqq1MhsWlt386NJjcxuH7oYHUVqZO5CV79D9C41Mvt50NWsXqVG5q40DTtMb1Ijc1j+Xc62LvXn5+ctF2TuUs+4Q1mV+uvrC5njIu9/lVWpeTL372b0Ca1JjczRUY+z0IrUyDyOk5tP2rrUyLw54vE2aFVqZB7PxWQnbk1qZE4W7bgbtSI1Mo/rYPKT15YamZNHyoa1pEZm3MtGoLTUyJwtSjYWgVJSI7OIU7MTyC01MmePkBs8E8glNTI/k+Z9MQKppUbmYtFxozUCqaTeXb9fazfhOgRqEJjlPp1OwbfmyRyMjAW5CcQ+qZE5dzLsH00gVGpkjkbNwlIEfKVG5lKJcJ/NBH6TGpk3I2aD0gTWpOa7GaWT4H7JCby9vU2Xy2XiyZwcLRuWJvD6+nq7JTKXJs/9shFA5mxo2bg0AWQuTZz7ZSOAzNnQsnFpAshcmjj3y0YAmbOhZePSBJC5NHHul40AMmdDy8alCSBzaeLcLxsBZM6Glo1LE0Dm0sS5XzYCfwC4ig/9JGgU7gAAAABJRU5ErkJggg==;rotation=0;" parent="piJNV3xV2iv5CXKUrv6N-233" vertex="1">
          <mxGeometry x="40.91" y="273.8235294117647" width="9.09" height="10" as="geometry" />
        </mxCell>
        <mxCell id="piJNV3xV2iv5CXKUrv6N-234" value="" style="endArrow=none;html=1;rounded=0;exitX=1;exitY=0.5;exitDx=0;exitDy=0;entryX=0;entryY=0.5;entryDx=0;entryDy=0;" parent="WIyWlLk6GJQsqaUBKTNV-1" source="piJNV3xV2iv5CXKUrv6N-39" target="piJNV3xV2iv5CXKUrv6N-204" edge="1">
          <mxGeometry relative="1" as="geometry">
            <mxPoint x="610" y="370" as="sourcePoint" />
            <mxPoint x="770" y="370" as="targetPoint" />
            <Array as="points">
              <mxPoint x="580" y="375" />
              <mxPoint x="580" y="475" />
            </Array>
          </mxGeometry>
        </mxCell>
        <mxCell id="piJNV3xV2iv5CXKUrv6N-243" value="" style="endArrow=none;html=1;rounded=0;entryX=1;entryY=0.5;entryDx=0;entryDy=0;exitX=1;exitY=0.5;exitDx=0;exitDy=0;" parent="WIyWlLk6GJQsqaUBKTNV-1" source="piJNV3xV2iv5CXKUrv6N-120" target="piJNV3xV2iv5CXKUrv6N-14" edge="1">
          <mxGeometry width="50" height="50" relative="1" as="geometry">
            <mxPoint x="950" y="550" as="sourcePoint" />
            <mxPoint x="1000" y="500" as="targetPoint" />
            <Array as="points">
              <mxPoint x="1420" y="745" />
              <mxPoint x="1420" y="125" />
            </Array>
          </mxGeometry>
        </mxCell>
        <mxCell id="piJNV3xV2iv5CXKUrv6N-244" value="" style="endArrow=none;html=1;rounded=0;entryX=0;entryY=0.5;entryDx=0;entryDy=0;exitX=1;exitY=0.5;exitDx=0;exitDy=0;" parent="WIyWlLk6GJQsqaUBKTNV-1" source="piJNV3xV2iv5CXKUrv6N-189" target="piJNV3xV2iv5CXKUrv6N-167" edge="1">
          <mxGeometry relative="1" as="geometry">
            <mxPoint x="900" y="520" as="sourcePoint" />
            <mxPoint x="1060" y="520" as="targetPoint" />
            <Array as="points">
              <mxPoint x="970" y="505" />
              <mxPoint x="970" y="435" />
            </Array>
          </mxGeometry>
        </mxCell>
        <mxCell id="piJNV3xV2iv5CXKUrv6N-248" value="" style="group" parent="WIyWlLk6GJQsqaUBKTNV-1" vertex="1" connectable="0">
          <mxGeometry x="800" y="691" width="60" height="289" as="geometry" />
        </mxCell>
        <mxCell id="piJNV3xV2iv5CXKUrv6N-249" value="" style="group" parent="WIyWlLk6GJQsqaUBKTNV-1" vertex="1" connectable="0">
          <mxGeometry x="950" y="440" width="60.09" height="280" as="geometry" />
        </mxCell>
        <mxCell id="piJNV3xV2iv5CXKUrv6N-235" value="" style="endArrow=none;html=1;rounded=0;exitX=0;exitY=0.5;exitDx=0;exitDy=0;entryX=1;entryY=0.5;entryDx=0;entryDy=0;" parent="piJNV3xV2iv5CXKUrv6N-249" edge="1">
          <mxGeometry relative="1" as="geometry">
            <mxPoint x="59.99999999999997" y="274.2857142857143" as="sourcePoint" />
            <mxPoint x="-49.99999999999998" as="targetPoint" />
            <Array as="points">
              <mxPoint y="274.2857142857143" />
              <mxPoint />
            </Array>
          </mxGeometry>
        </mxCell>
        <mxCell id="piJNV3xV2iv5CXKUrv6N-240" value="" style="shape=image;verticalLabelPosition=bottom;labelBackgroundColor=default;verticalAlign=top;aspect=fixed;imageAspect=0;image=data:image/png,iVBORw0KGgoAAAANSUhEUgAAALMAAADFCAYAAAAfb8MvAAABVmlDQ1BJQ0MgUHJvZmlsZQAAGJV1kL1Lw1AUxU9qQ0UKOnTo4BChfgxVpCnYte1QBIdQP1C3JI2pkKaPJCI6KzgWxEFw0LqLky4ODu4iioOIi4N/gNhFS7yvVdMq3sfl/DjvcLlcIASVMSsMoGJ7TrGQkxaXlqXIC3ohIkbfQ6rusqyizFAE39pdjXsIXG/H+ayp4QvxyD0JCZvPofjN3ujffFf1lQxXJ/2gHtOZ4wFCglhZ9xhnasQcWop4h7PZ5gPOWptPW5m5Yp74inhAL6sl4jvipNbhmx1csdb0rx349lHDnp/lSj2IBRQgI00v808u3crlUQXDBhyswkQZHiRkyWGwYBBPw4aOCSSJU5iklvl9f98t8Kp1IPMG9NQCT9sHzreB+EPgJQ6B/i3g7JqpjvpzTaERdlfkVJujOUB88v3XESCyCzRrvv9e9/3mMc1/BC7tT6+UYHjOX8wRAAAAVmVYSWZNTQAqAAAACAABh2kABAAAAAEAAAAaAAAAAAADkoYABwAAABIAAABEoAIABAAAAAEAAACzoAMABAAAAAEAAADFAAAAAEFTQ0lJAAAAU2NyZWVuc2hvdKVsKK4AAAHWaVRYdFhNTDpjb20uYWRvYmUueG1wAAAAAAA8eDp4bXBtZXRhIHhtbG5zOng9ImFkb2JlOm5zOm1ldGEvIiB4OnhtcHRrPSJYTVAgQ29yZSA2LjAuMCI+CiAgIDxyZGY6UkRGIHhtbG5zOnJkZj0iaHR0cDovL3d3dy53My5vcmcvMTk5OS8wMi8yMi1yZGYtc3ludGF4LW5zIyI+CiAgICAgIDxyZGY6RGVzY3JpcHRpb24gcmRmOmFib3V0PSIiCiAgICAgICAgICAgIHhtbG5zOmV4aWY9Imh0dHA6Ly9ucy5hZG9iZS5jb20vZXhpZi8xLjAvIj4KICAgICAgICAgPGV4aWY6UGl4ZWxZRGltZW5zaW9uPjE5NzwvZXhpZjpQaXhlbFlEaW1lbnNpb24+CiAgICAgICAgIDxleGlmOlBpeGVsWERpbWVuc2lvbj4xNzk8L2V4aWY6UGl4ZWxYRGltZW5zaW9uPgogICAgICAgICA8ZXhpZjpVc2VyQ29tbWVudD5TY3JlZW5zaG90PC9leGlmOlVzZXJDb21tZW50PgogICAgICA8L3JkZjpEZXNjcmlwdGlvbj4KICAgPC9yZGY6UkRGPgo8L3g6eG1wbWV0YT4KFfwLhQAACAFJREFUeAHtnYtx2zgURSnPFmJ3IlUmqzKrBJegEtyBYmpzM5JMwgCI3wOOZpxnER8+nHvCWXsTZ3f9fk28IGCYwOFwmM7n8/Ri+Ay0DoEHAsj8gIM3lgkgs+X06P2BADI/4OCNRQKXy+XWNjJbTI+ebwTe39+n3W43Seb/4AIBawRmiU+n04+2kfkHEi60SmBNYvWLzCJBbZbAbxKrcWQWCWpzBHwlVuPILBLUZgiESqzGvb+bMd9g/sox5cf8vyB5QUAE5NjSF3ea46o8mV10GCtCIPZJ/NwcMj8T4X0xAqkkVsPILBLUYgRSS6zGkVkkqNkJ5JJYjSOzSFCzEcgtsRpHZpGgJidQSmI1jswiQU1GoLTEahyZRYK6mUAtidU4MosENZpAbYnVODKLBDWYQCsSq3FkFgmqN4HWJFbjyCwS1F8JtCqxGkdmkaCuEmhdYjWOzCJB/UHAisRqHJlFgvqPgDWJ1TgyiwR1siqxovP+w/laQO2PwCzx/JcuYv9QfE0ix+Nx2u/3txaQuWYSle9tXeL5Z37OZ9CL/8wQiYHqLIDFp/Ac0fwkvhf4PjZkvqfR+ee9SqzYkFkkOq69S6zokFkkOqyjSKzokFkkOqqjSazokFkkOqijSqzokFkkDNfRJVZ0yCwSBisSP4aGzI88TLxD4uWYkHmZS5NXkdgdCzK7+TQxisR+MSCzH6cqs5A4DDsyh/EqMhuJ4zAjcxy3LKuQeBtWZN7GL8lqJE6CcULmNByjdkHiKGyri5B5FU2+ASTOwxaZ83Bd3BWJF7Eku4jMyVCub4TE62xSjiBzSppPeyHxE5DMb5E5A2AkzgDVY0tk9oDkOwWJfUnlmYfMCbgicQKICbZA5g0QkXgDvAxLkTkCKhJHQCuwBJkDICNxAKwKU5HZAzoSe0BqYAoyO0JAYgecBoeQeSEUJF6AYuASMt+FhMR3MAx+iszfoSGxQXMXWh5aZiReMMLwpSFlRmLDxjpaH0pmJHaY0MHQEDIjcQemehyha5mR2MOAjqZ0KTMSd2RowFG6khmJA5LvcGoXMiNxh2ZGHMm0zEgckXjHS0zKjMQdG7nhaKZkRuINSQ+w1ITMSDyAiQmO2LTMSJwg4YG2aFJmJB7IwIRHbUpmJE6Y7IBbNSEzEg9oXoYjV5X5dDpNh8Mhw7Hyb3k8Hqf5NyGvdghUlfl8PrdDwrMTJPYEVWFaVZkrnDf6lkgcja7YQmT+BTUS/wKooWFkXgkDiVfANHwZmZ/CQeInIIbeIvPfsJDYkLUrre6+r19XxrgMAVMEXkx1S7MQcBBAZgcchmwRQGZbedGtgwAyO+AwZIsAMtvKi24dBJDZAYchWwSQ2VZedOsggMwOOAzZIoDMtvKiWwcBZHbAYcgWAWS2lRfdOgggswMOQ7YIILOtvOjWQQCZHXAYskUAmW3lRbcOAsjsgMOQLQLIbCsvunUQQGYHHIZsEUBmW3nRrYMAMjvgMGSLwMv1ep18Pua/vdzra7/fTx8fH14cfFgxx8+pVJzm/OYXT+ZvCPPPvJt/gOP8YfHn392S5BdkvncAqe9p2PucJ/NCZki9AMXAJWR2hITUDjgNDiGzRyhI7QGpgSlVZdZXoQ1w8GoBqb0wVZtUVeb5233zt2esfdsPqav56rxxVZnV2fxvgyC1aFBjCTQhs5pHapGgxhBoSmYdAKlFghpCoEmZdQCkFgmqD4GmZdYBkFokqC4CJmTWAZBaJKhLBEzJrAMgtUhQ7wmYlFkHQGqRoM4ETMusCJFaJMauXcisCJFaJMasXcmsCJFaJMaqXcqsCJFaJMaoXcusCJFaJPquQ8isCJFaJPqsQ8msCJFaJPqqQ8qsCJFaJPqoQ8usCJFaJGxXZL7LD6nvYBj8FJkXQkPqBSgGLiGzIySkdsBpcAiZPUJBag9IDUxB5oAQkDoAVoWpyBwBHakjoBVYgswbICP1BngZliJzAqhInQBigi2QOQFEbYHUIlGnInMG7kidAarHlsjsASl2ClLHkotbh8xx3IJWIXUQrujJyByNLnwhUoczC1mBzCG0Es1F6kQgn7ZB5icgJd8idVrayJyWZ9RuSB2F7cciZP6BpN4FpN7GHpm38cuyGqnjsCJzHLciq5A6DDMyh/GqMhup/bAjsx+nJmYhtTsGZHbzaXIUqZdjQeZlLiauIvVjTMj8yMPkO6T+PzZkNqnvctOjS43My16Yvjqq1MhsWlt386NJjcxuH7oYHUVqZO5CV79D9C41Mvt50NWsXqVG5q40DTtMb1Ijc1j+Xc62LvXn5+ctF2TuUs+4Q1mV+uvrC5njIu9/lVWpeTL372b0Ca1JjczRUY+z0IrUyDyOk5tP2rrUyLw54vE2aFVqZB7PxWQnbk1qZE4W7bgbtSI1Mo/rYPKT15YamZNHyoa1pEZm3MtGoLTUyJwtSjYWgVJSI7OIU7MTyC01MmePkBs8E8glNTI/k+Z9MQKppUbmYtFxozUCqaTeXb9fazfhOgRqEJjlPp1OwbfmyRyMjAW5CcQ+qZE5dzLsH00gVGpkjkbNwlIEfKVG5lKJcJ/NBH6TGpk3I2aD0gTWpOa7GaWT4H7JCby9vU2Xy2XiyZwcLRuWJvD6+nq7JTKXJs/9shFA5mxo2bg0AWQuTZz7ZSOAzNnQsnFpAshcmjj3y0YAmbOhZePSBJC5NHHul40AMmdDy8alCSBzaeLcLxsBZM6Glo1LE0Dm0sS5XzYCfwC4ig/9JGgU7gAAAABJRU5ErkJggg==;rotation=0;" parent="piJNV3xV2iv5CXKUrv6N-249" vertex="1">
          <mxGeometry x="50.99999999999998" y="268.57142857142856" width="9.089999999999996" height="9.999999999999996" as="geometry" />
        </mxCell>
        <mxCell id="piJNV3xV2iv5CXKUrv6N-247" value="" style="shape=image;verticalLabelPosition=bottom;labelBackgroundColor=default;verticalAlign=top;aspect=fixed;imageAspect=0;image=data:image/png,iVBORw0KGgoAAAANSUhEUgAAALMAAADFCAYAAAAfb8MvAAABVmlDQ1BJQ0MgUHJvZmlsZQAAGJV1kL1Lw1AUxU9qQ0UKOnTo4BChfgxVpCnYte1QBIdQP1C3JI2pkKaPJCI6KzgWxEFw0LqLky4ODu4iioOIi4N/gNhFS7yvVdMq3sfl/DjvcLlcIASVMSsMoGJ7TrGQkxaXlqXIC3ohIkbfQ6rusqyizFAE39pdjXsIXG/H+ayp4QvxyD0JCZvPofjN3ujffFf1lQxXJ/2gHtOZ4wFCglhZ9xhnasQcWop4h7PZ5gPOWptPW5m5Yp74inhAL6sl4jvipNbhmx1csdb0rx349lHDnp/lSj2IBRQgI00v808u3crlUQXDBhyswkQZHiRkyWGwYBBPw4aOCSSJU5iklvl9f98t8Kp1IPMG9NQCT9sHzreB+EPgJQ6B/i3g7JqpjvpzTaERdlfkVJujOUB88v3XESCyCzRrvv9e9/3mMc1/BC7tT6+UYHjOX8wRAAAAVmVYSWZNTQAqAAAACAABh2kABAAAAAEAAAAaAAAAAAADkoYABwAAABIAAABEoAIABAAAAAEAAACzoAMABAAAAAEAAADFAAAAAEFTQ0lJAAAAU2NyZWVuc2hvdKVsKK4AAAHWaVRYdFhNTDpjb20uYWRvYmUueG1wAAAAAAA8eDp4bXBtZXRhIHhtbG5zOng9ImFkb2JlOm5zOm1ldGEvIiB4OnhtcHRrPSJYTVAgQ29yZSA2LjAuMCI+CiAgIDxyZGY6UkRGIHhtbG5zOnJkZj0iaHR0cDovL3d3dy53My5vcmcvMTk5OS8wMi8yMi1yZGYtc3ludGF4LW5zIyI+CiAgICAgIDxyZGY6RGVzY3JpcHRpb24gcmRmOmFib3V0PSIiCiAgICAgICAgICAgIHhtbG5zOmV4aWY9Imh0dHA6Ly9ucy5hZG9iZS5jb20vZXhpZi8xLjAvIj4KICAgICAgICAgPGV4aWY6UGl4ZWxZRGltZW5zaW9uPjE5NzwvZXhpZjpQaXhlbFlEaW1lbnNpb24+CiAgICAgICAgIDxleGlmOlBpeGVsWERpbWVuc2lvbj4xNzk8L2V4aWY6UGl4ZWxYRGltZW5zaW9uPgogICAgICAgICA8ZXhpZjpVc2VyQ29tbWVudD5TY3JlZW5zaG90PC9leGlmOlVzZXJDb21tZW50PgogICAgICA8L3JkZjpEZXNjcmlwdGlvbj4KICAgPC9yZGY6UkRGPgo8L3g6eG1wbWV0YT4KFfwLhQAACAFJREFUeAHtnYtx2zgURSnPFmJ3IlUmqzKrBJegEtyBYmpzM5JMwgCI3wOOZpxnER8+nHvCWXsTZ3f9fk28IGCYwOFwmM7n8/Ri+Ay0DoEHAsj8gIM3lgkgs+X06P2BADI/4OCNRQKXy+XWNjJbTI+ebwTe39+n3W43Seb/4AIBawRmiU+n04+2kfkHEi60SmBNYvWLzCJBbZbAbxKrcWQWCWpzBHwlVuPILBLUZgiESqzGvb+bMd9g/sox5cf8vyB5QUAE5NjSF3ea46o8mV10GCtCIPZJ/NwcMj8T4X0xAqkkVsPILBLUYgRSS6zGkVkkqNkJ5JJYjSOzSFCzEcgtsRpHZpGgJidQSmI1jswiQU1GoLTEahyZRYK6mUAtidU4MosENZpAbYnVODKLBDWYQCsSq3FkFgmqN4HWJFbjyCwS1F8JtCqxGkdmkaCuEmhdYjWOzCJB/UHAisRqHJlFgvqPgDWJ1TgyiwR1siqxovP+w/laQO2PwCzx/JcuYv9QfE0ix+Nx2u/3txaQuWYSle9tXeL5Z37OZ9CL/8wQiYHqLIDFp/Ac0fwkvhf4PjZkvqfR+ee9SqzYkFkkOq69S6zokFkkOqyjSKzokFkkOqqjSazokFkkOqijSqzokFkkDNfRJVZ0yCwSBisSP4aGzI88TLxD4uWYkHmZS5NXkdgdCzK7+TQxisR+MSCzH6cqs5A4DDsyh/EqMhuJ4zAjcxy3LKuQeBtWZN7GL8lqJE6CcULmNByjdkHiKGyri5B5FU2+ASTOwxaZ83Bd3BWJF7Eku4jMyVCub4TE62xSjiBzSppPeyHxE5DMb5E5A2AkzgDVY0tk9oDkOwWJfUnlmYfMCbgicQKICbZA5g0QkXgDvAxLkTkCKhJHQCuwBJkDICNxAKwKU5HZAzoSe0BqYAoyO0JAYgecBoeQeSEUJF6AYuASMt+FhMR3MAx+iszfoSGxQXMXWh5aZiReMMLwpSFlRmLDxjpaH0pmJHaY0MHQEDIjcQemehyha5mR2MOAjqZ0KTMSd2RowFG6khmJA5LvcGoXMiNxh2ZGHMm0zEgckXjHS0zKjMQdG7nhaKZkRuINSQ+w1ITMSDyAiQmO2LTMSJwg4YG2aFJmJB7IwIRHbUpmJE6Y7IBbNSEzEg9oXoYjV5X5dDpNh8Mhw7Hyb3k8Hqf5NyGvdghUlfl8PrdDwrMTJPYEVWFaVZkrnDf6lkgcja7YQmT+BTUS/wKooWFkXgkDiVfANHwZmZ/CQeInIIbeIvPfsJDYkLUrre6+r19XxrgMAVMEXkx1S7MQcBBAZgcchmwRQGZbedGtgwAyO+AwZIsAMtvKi24dBJDZAYchWwSQ2VZedOsggMwOOAzZIoDMtvKiWwcBZHbAYcgWAWS2lRfdOgggswMOQ7YIILOtvOjWQQCZHXAYskUAmW3lRbcOAsjsgMOQLQLIbCsvunUQQGYHHIZsEUBmW3nRrYMAMjvgMGSLwMv1ep18Pua/vdzra7/fTx8fH14cfFgxx8+pVJzm/OYXT+ZvCPPPvJt/gOP8YfHn392S5BdkvncAqe9p2PucJ/NCZki9AMXAJWR2hITUDjgNDiGzRyhI7QGpgSlVZdZXoQ1w8GoBqb0wVZtUVeb5233zt2esfdsPqav56rxxVZnV2fxvgyC1aFBjCTQhs5pHapGgxhBoSmYdAKlFghpCoEmZdQCkFgmqD4GmZdYBkFokqC4CJmTWAZBaJKhLBEzJrAMgtUhQ7wmYlFkHQGqRoM4ETMusCJFaJMauXcisCJFaJMasXcmsCJFaJMaqXcqsCJFaJMaoXcusCJFaJPquQ8isCJFaJPqsQ8msCJFaJPqqQ8qsCJFaJPqoQ8usCJFaJGxXZL7LD6nvYBj8FJkXQkPqBSgGLiGzIySkdsBpcAiZPUJBag9IDUxB5oAQkDoAVoWpyBwBHakjoBVYgswbICP1BngZliJzAqhInQBigi2QOQFEbYHUIlGnInMG7kidAarHlsjsASl2ClLHkotbh8xx3IJWIXUQrujJyByNLnwhUoczC1mBzCG0Es1F6kQgn7ZB5icgJd8idVrayJyWZ9RuSB2F7cciZP6BpN4FpN7GHpm38cuyGqnjsCJzHLciq5A6DDMyh/GqMhup/bAjsx+nJmYhtTsGZHbzaXIUqZdjQeZlLiauIvVjTMj8yMPkO6T+PzZkNqnvctOjS43My16Yvjqq1MhsWlt386NJjcxuH7oYHUVqZO5CV79D9C41Mvt50NWsXqVG5q40DTtMb1Ijc1j+Xc62LvXn5+ctF2TuUs+4Q1mV+uvrC5njIu9/lVWpeTL372b0Ca1JjczRUY+z0IrUyDyOk5tP2rrUyLw54vE2aFVqZB7PxWQnbk1qZE4W7bgbtSI1Mo/rYPKT15YamZNHyoa1pEZm3MtGoLTUyJwtSjYWgVJSI7OIU7MTyC01MmePkBs8E8glNTI/k+Z9MQKppUbmYtFxozUCqaTeXb9fazfhOgRqEJjlPp1OwbfmyRyMjAW5CcQ+qZE5dzLsH00gVGpkjkbNwlIEfKVG5lKJcJ/NBH6TGpk3I2aD0gTWpOa7GaWT4H7JCby9vU2Xy2XiyZwcLRuWJvD6+nq7JTKXJs/9shFA5mxo2bg0AWQuTZz7ZSOAzNnQsnFpAshcmjj3y0YAmbOhZePSBJC5NHHul40AMmdDy8alCSBzaeLcLxsBZM6Glo1LE0Dm0sS5XzYCfwC4ig/9JGgU7gAAAABJRU5ErkJggg==;rotation=0;" parent="WIyWlLk6GJQsqaUBKTNV-1" vertex="1">
          <mxGeometry x="850.91" y="979.9965055762082" width="9.09" height="10" as="geometry" />
        </mxCell>
        <mxCell id="piJNV3xV2iv5CXKUrv6N-246" value="" style="endArrow=none;html=1;rounded=0;entryX=-0.004;entryY=0.7;entryDx=0;entryDy=0;entryPerimeter=0;exitX=1;exitY=0.5;exitDx=0;exitDy=0;" parent="WIyWlLk6GJQsqaUBKTNV-1" source="piJNV3xV2iv5CXKUrv6N-247" target="piJNV3xV2iv5CXKUrv6N-114" edge="1">
          <mxGeometry relative="1" as="geometry">
            <mxPoint x="740" y="851.0780669144981" as="sourcePoint" />
            <mxPoint x="900" y="851.0780669144981" as="targetPoint" />
            <Array as="points">
              <mxPoint x="800" y="985" />
              <mxPoint x="800" y="691" />
            </Array>
          </mxGeometry>
        </mxCell>
      </root>
    </mxGraphModel>
  </diagram>
</mxfile>
